<?xml version="1.0" encoding="utf-8"?>
<!-- Generator: Adobe Illustrator 16.0.0, SVG Export Plug-In . SVG Version: 6.00 Build 0)  -->
<!DOCTYPE svg PUBLIC "-//W3C//DTD SVG 1.1//EN" "http://www.w3.org/Graphics/SVG/1.1/DTD/svg11.dtd">
<svg version="1.1" id="Layer_1" xmlns="http://www.w3.org/2000/svg" xmlns:xlink="http://www.w3.org/1999/xlink" x="0px" y="0px"
	 width="56px" height="56px" viewBox="0 0 56 56" enable-background="new 0 0 56 56" xml:space="preserve">
<path fill="#777777" d="M26.896,42.486C27.17,42.796,27.554,43,27.998,43c0.005,0,0.009-0.003,0.014-0.003
	c0.004,0,0.009,0.003,0.012,0.003c0.38,0,0.76-0.146,1.051-0.436l12.277-12.277c0.58-0.58,0.58-1.521,0-2.1
	c-0.579-0.58-1.52-0.58-2.101,0l-9.769,9.772V14.483c0-0.82-0.663-1.484-1.484-1.484c-0.82,0-1.483,0.664-1.483,1.484v23.434
	l-9.77-9.729c-0.581-0.58-1.521-0.569-2.101,0.007c-0.579,0.579-0.575,1.52,0.005,2.098L26.896,42.486z"/>
<circle fill="none" stroke="#777777" stroke-width="2.5" stroke-miterlimit="10" cx="28" cy="28" r="26.5"/>
</svg>
