<?xml version="1.0" encoding="UTF-8" standalone="no"?>
<!-- Generator: Adobe Illustrator 18.1.1, SVG Export Plug-In . SVG Version: 6.00 Build 0)  -->

<svg
   xmlns:dc="http://purl.org/dc/elements/1.1/"
   xmlns:cc="http://creativecommons.org/ns#"
   xmlns:rdf="http://www.w3.org/1999/02/22-rdf-syntax-ns#"
   xmlns:svg="http://www.w3.org/2000/svg"
   xmlns="http://www.w3.org/2000/svg"
   xmlns:sodipodi="http://sodipodi.sourceforge.net/DTD/sodipodi-0.dtd"
   xmlns:inkscape="http://www.inkscape.org/namespaces/inkscape"
   version="1.1"
   id="Layer_1"
   x="0px"
   y="0px"
   viewBox="0 0 200.7197 214.02634"
   enable-background="new 0 0 1920 1080"
   xml:space="preserve"
   inkscape:version="0.48.5 r10040"
   width="100%"
   height="100%"
   sodipodi:docname="speech_1.svg"><metadata
   id="metadata3093"><rdf:RDF><cc:Work
       rdf:about=""><dc:format>image/svg+xml</dc:format><dc:type
         rdf:resource="http://purl.org/dc/dcmitype/StillImage" /></cc:Work></rdf:RDF></metadata><defs
   id="defs3091" /><sodipodi:namedview
   pagecolor="#ffffff"
   bordercolor="#666666"
   borderopacity="1"
   objecttolerance="10"
   gridtolerance="10"
   guidetolerance="10"
   inkscape:pageopacity="0"
   inkscape:pageshadow="2"
   inkscape:window-width="640"
   inkscape:window-height="480"
   id="namedview3089"
   showgrid="false"
   fit-margin-top="0"
   fit-margin-left="0"
   fit-margin-right="0"
   fit-margin-bottom="0"
   inkscape:zoom="0.18194173"
   inkscape:cx="100.0197"
   inkscape:cy="106.84444"
   inkscape:window-x="0"
   inkscape:window-y="0"
   inkscape:window-maximized="0"
   inkscape:current-layer="Layer_1" />
<g
   id="g3075"
   transform="translate(-859.9803,-432.81811)">
	<path
   d="m 1049.3,622.3 11.4,9 -20.8,12.3 c 0,0 -7.7,7.3 -22,0 -14.3,-7.3 -46,-26 -46,-26 l -5.3,3.3 -20.3,-17 -59,-33 c 0,0 -16.3,-8.7 -11.7,-12.3 4.7,-3.7 36.3,-19.5 36.3,-19.5 l 137.4,83.2 z"
   id="path3077"
   inkscape:connector-curvature="0"
   style="fill:#9eadbb" />
	<g
   id="g3079">
		<g
   id="g3081">
			<path
   d="m 870.2,438.6 9.2,-3.9 c 0,0 7.3,-5 18.3,1.3 11,6.3 108.8,60.7 108.8,60.7 0,0 22.5,13.3 22.5,36 0,29.7 0,49.3 0,49.3 0,0 1.4,10.3 -8.7,17.3 -10,7.1 -12.4,7.9 -12.4,7.9 L 992.6,521.3 870.2,438.6 z"
   id="path3083"
   inkscape:connector-curvature="0"
   style="fill:#283370" />
			<polygon
   points="955,580 961,612.7 975,604 975,580 "
   id="polygon3085"
   style="fill:#283370" />
		</g>
		<path
   d="m 860,453 v 49 c 0,0 -2,24.3 34.3,45.7 36.3,21.3 40,22.7 40,22.7 L 961,612.7 V 586 l 33.8,21 c 0,0 21.2,10.3 21.2,-21 0,-31.3 0,-43 0,-43 0,0 1,-23.7 -19.3,-35 C 976.3,496.7 872,438 872,438 c 0,0 -10.7,2.2 -12,15 z"
   id="path3087"
   inkscape:connector-curvature="0"
   style="fill:#2f3c80" />
	</g>
</g>
</svg>