<?xml version="1.0" encoding="utf-8"?>
<!-- Generator: Adobe Illustrator 16.0.0, SVG Export Plug-In . SVG Version: 6.00 Build 0)  -->
<!DOCTYPE svg PUBLIC "-//W3C//DTD SVG 1.1//EN" "http://www.w3.org/Graphics/SVG/1.1/DTD/svg11.dtd">
<svg version="1.1" id="Layer_1" xmlns="http://www.w3.org/2000/svg" xmlns:xlink="http://www.w3.org/1999/xlink" x="0px" y="0px"
	 width="140px" height="182px" viewBox="0 0 140 182" enable-background="new 0 0 140 182" xml:space="preserve">
<g>
	<g>
		<g>
			<path fill="#9e6d84" d="M70,181.691c-0.261,0-0.521-0.069-0.787-0.266l-3.205-2.289l1.508-2.156l1.175,0.849v-1.503h2.618v4.06
				c0,0.46-0.262,0.908-0.722,1.175C70.394,181.622,70.194,181.691,70,181.691z"/>
			<path fill="#9e6d84" d="M71.309,173.057h-2.617v-7.197h2.617V173.057z M71.309,162.589h-2.617v-7.196h2.617V162.589z
				 M71.309,152.122h-2.617v-7.197h2.617V152.122z M71.309,141.652h-2.617v-7.195h2.617V141.652z M71.309,131.188h-2.617v-7.196
				h2.617V131.188z M71.309,120.718h-2.617v-7.194h2.617V120.718z M71.309,110.252h-2.617v-7.195h2.617V110.252z"/>
			<path fill="#9e6d84" d="M71.309,100.438h-2.617v-3.465l-2.617-1.701l1.441-2.226l3.205,2.091
				c0.396,0.262,0.588,0.654,0.588,1.114V100.438L71.309,100.438z"/>
			<path fill="#9e6d84" d="M63.524,93.375l-6.021-4.125l1.508-2.157l6.016,4.12L63.524,93.375z M54.953,87.487l-6.021-4.125
				l1.508-2.157l6.016,4.119L54.953,87.487z M46.449,81.66l-6.021-4.119l1.508-2.157l6.016,4.12L46.449,81.66z M37.944,75.773
				l-6.021-4.12l1.507-2.157l6.016,4.12L37.944,75.773z M29.373,69.885l-6.016-4.12l1.502-2.157l6.021,4.119L29.373,69.885z
				 M20.868,63.998l-6.016-4.119l1.502-2.157l6.021,4.12L20.868,63.998z M12.297,58.109l-6.016-4.12l1.503-2.157l6.021,4.12
				L12.297,58.109z"/>
			<path fill="#9e6d84" d="M2.617,52.681H0V48.95c0-0.455,0.261-0.915,0.654-1.176c0.394-0.194,0.915-0.194,1.308,0.066l3.205,2.09
				l-1.436,2.162l-1.114-0.721V52.681z"/>
			<path fill="#9e6d84" d="M2.617,125.952H0v-7.196h2.617V125.952z M2.617,115.484H0v-7.195h2.617V115.484z M2.617,105.018H0v-7.195
				h2.617V105.018z M2.617,94.55H0v-7.195h2.617V94.55z M2.617,84.083H0v-7.196h2.617V84.083z M2.617,73.616H0V66.42h2.617V73.616z
				 M2.617,63.149H0v-7.197h2.617V63.149z"/>
			<path fill="#9e6d84" d="M3.792,135.96l-3.205-2.157C0.194,133.537,0,133.148,0,132.688v-4.119h2.617v3.466l2.617,1.769
				L3.792,135.96z"/>
			<path fill="#9e6d84" d="M63.524,177.439l-6.021-4.188l1.508-2.158l6.016,4.191L63.524,177.439z M55.02,171.552l-6.021-4.19
				l1.508-2.154l6.016,4.189L55.02,171.552z M46.449,165.593l-6.021-4.182l1.508-2.156l6.016,4.183L46.449,165.593z M37.944,159.706
				l-6.021-4.183l1.507-2.155l6.016,4.182L37.944,159.706z M29.373,153.755l-6.016-4.188l1.502-2.157l6.021,4.19L29.373,153.755z
				 M20.868,147.868l-6.016-4.188l1.502-2.158l6.021,4.19L20.868,147.868z M12.297,141.919l-6.016-4.188l1.503-2.157l6.021,4.181
				L12.297,141.919z"/>
		</g>
		<g>
			<path fill="none" d="M1.309,48.95"/>
		</g>
		<g>
			<path fill="none" d="M138.691,48.95"/>
		</g>
		<g>
			<path fill="#9e6d84" d="M70,181.691c-0.194,0-0.394-0.069-0.588-0.133c-0.46-0.192-0.721-0.652-0.721-1.176v-4.058h2.618v1.503
				l1.176-0.85l1.508,2.158l-3.204,2.288C70.521,181.561,70.261,181.691,70,181.691z"/>
			<path fill="#9e6d84" d="M71.309,173.057h-2.617v-7.197h2.617V173.057z M71.309,162.589h-2.617v-7.196h2.617V162.589z
				 M71.309,152.122h-2.617v-7.197h2.617V152.122z M71.309,141.652h-2.617v-7.195h2.617V141.652z M71.309,131.188h-2.617v-7.196
				h2.617V131.188z M71.309,120.718h-2.617v-7.194h2.617V120.718z M71.309,110.252h-2.617v-7.195h2.617V110.252z"/>
			<path fill="#9e6d84" d="M71.309,100.438h-2.617v-4.187c0-0.46,0.194-0.854,0.588-1.114l3.205-2.091l1.44,2.226l-2.616,1.701
				V100.438L71.309,100.438z"/>
			<path fill="#9e6d84" d="M76.48,93.375l-1.508-2.162l6.016-4.12l1.503,2.157L76.48,93.375z M85.047,87.487l-1.503-2.162
				l6.021-4.119l1.504,2.157L85.047,87.487z M93.552,81.66l-1.503-2.157l6.021-4.12l1.503,2.157L93.552,81.66z M102.057,75.773
				l-1.502-2.157l6.021-4.12l1.503,2.157L102.057,75.773z M110.622,69.885l-1.503-2.157l6.021-4.119l1.502,2.157L110.622,69.885z
				 M119.127,63.998l-1.503-2.157l6.021-4.12l1.504,2.157L119.127,63.998z M127.703,58.109l-1.503-2.157l6.011-4.12l1.514,2.157
				L127.703,58.109z"/>
			<path fill="#9e6d84" d="M140,52.681h-2.617v-1.308l-1.175,0.787l-1.44-2.162l3.209-2.09c0.39-0.266,0.91-0.266,1.31-0.066
				c0.389,0.194,0.653,0.654,0.653,1.176v3.665H140V52.681z"/>
			<path fill="#9e6d84" d="M140,125.952h-2.617v-7.196H140V125.952z M140,115.484h-2.617v-7.195H140V115.484z M140,105.018h-2.617
				v-7.195H140V105.018z M140,94.55h-2.617v-7.195H140V94.55z M140,84.083h-2.617v-7.196H140V84.083z M140,73.616h-2.617V66.42H140
				V73.616z M140,63.149h-2.617v-7.197H140V63.149z"/>
			<path fill="#9e6d84" d="M136.208,135.96l-1.44-2.157l2.615-1.769v-3.466H140v4.119c0,0.461-0.193,0.85-0.593,1.113
				L136.208,135.96z"/>
			<path fill="#9e6d84" d="M76.48,177.439l-1.508-2.155l6.016-4.191l1.503,2.158L76.48,177.439z M84.984,171.552l-1.512-2.155
				l6.021-4.189l1.503,2.154L84.984,171.552z M93.552,165.593l-1.503-2.155l6.021-4.183l1.503,2.156L93.552,165.593z
				 M102.057,159.706l-1.502-2.156l6.021-4.182l1.503,2.155L102.057,159.706z M110.622,153.755l-1.503-2.155l6.021-4.19l1.502,2.157
				L110.622,153.755z M119.127,147.868l-1.503-2.156l6.021-4.19l1.504,2.158L119.127,147.868z M127.703,141.919l-1.503-2.166
				l6.011-4.183l1.514,2.158L127.703,141.919z"/>
		</g>
	</g>
	<g>
		<g>
			<path fill="#9e6d84" d="M71.309,5.578h-2.617V4.137l-1.175,0.787l-1.508-2.157l3.205-2.229c0.394-0.26,0.92-0.327,1.375-0.061
				c0.46,0.194,0.722,0.654,0.722,1.175v3.926H71.309z"/>
			<path fill="#9e6d84" d="M71.309,78.85h-2.617v-7.196h2.617V78.85z M71.309,68.382h-2.617v-7.196h2.617V68.382z M71.309,57.916
				h-2.617v-7.197h2.617V57.916z M71.309,47.447h-2.617v-7.196h2.617V47.447z M71.309,36.98h-2.617v-7.196h2.617V36.98z
				 M71.309,26.513h-2.617v-7.196h2.617V26.513z M71.309,16.046h-2.617V8.851h2.617V16.046z"/>
			<path fill="#9e6d84" d="M67.516,89.185l-1.574-2.09l2.683-1.963v-3.01h2.617v3.598c0,0.394-0.194,0.787-0.521,1.048
				L67.516,89.185z"/>
			<path fill="#9e6d84" d="M7.784,130.145l-1.503-2.168l6.016-4.119l1.508,2.156L7.784,130.145z M16.355,124.316l-1.502-2.156
				l6.016-4.119l1.508,2.156L16.355,124.316z M24.86,118.428l-1.502-2.154l6.016-4.119l1.507,2.156L24.86,118.428z M33.364,112.541
				l-1.502-2.156l6.016-4.119l1.508,2.156L33.364,112.541z M41.936,106.652l-1.508-2.155l6.021-4.12l1.502,2.157L41.936,106.652z
				 M50.44,100.766l-1.508-2.156l6.021-4.125l1.503,2.162L50.44,100.766z M59.011,94.943l-1.508-2.161l6.021-4.12l1.502,2.157
				L59.011,94.943z"/>
			<path fill="#9e6d84" d="M1.309,134.324c-0.194,0-0.394-0.062-0.588-0.133C0.261,133.997,0,133.537,0,133.016v-3.793h2.617v1.37
				l1.176-0.776l1.441,2.156l-3.204,2.156C1.83,134.262,1.569,134.324,1.309,134.324z"/>
			<path fill="#9e6d84" d="M2.617,125.952H0v-7.196h2.617V125.952z M2.617,115.484H0v-7.195h2.617V115.484z M2.617,105.018H0v-7.195
				h2.617V105.018z M2.617,94.55H0v-7.195h2.617V94.55z M2.617,84.083H0v-7.196h2.617V84.083z M2.617,73.616H0V66.42h2.617V73.616z
				 M2.617,63.149H0v-7.197h2.617V63.149z"/>
			<path fill="#9e6d84" d="M2.617,53.336H0v-4.059c0-0.455,0.194-0.848,0.588-1.109l3.205-2.162l1.441,2.162l-2.617,1.763V53.336z"
				/>
			<path fill="#9e6d84" d="M7.784,46.4l-1.503-2.157l6.016-4.186l1.508,2.157L7.784,46.4z M16.289,40.445l-1.503-2.156l6.016-4.186
				l1.508,2.157L16.289,40.445z M24.86,34.559l-1.502-2.157l6.016-4.186l1.507,2.157L24.86,34.559z M33.364,28.609l-1.502-2.162
				l6.016-4.186l1.508,2.157L33.364,28.609z M41.936,22.72l-1.508-2.162l6.021-4.186l1.502,2.157L41.936,22.72z M50.44,16.767
				l-1.508-2.162l6.021-4.186l1.503,2.162L50.44,16.767z M59.011,10.879l-1.508-2.162l6.021-4.186l1.502,2.162L59.011,10.879z"/>
		</g>
		<g>
			<path fill="none" d="M1.309,133.016"/>
		</g>
		<g>
			<path fill="none" d="M138.691,133.016"/>
		</g>
		<g>
			<path fill="#9e6d84" d="M71.309,5.578h-2.617V1.653c0-0.46,0.261-0.915,0.721-1.175c0.455-0.199,0.981-0.199,1.375,0.061
				l3.204,2.229l-1.508,2.157l-1.176-0.787V5.578L71.309,5.578z"/>
			<path fill="#9e6d84" d="M71.309,78.85h-2.617v-7.196h2.617V78.85z M71.309,68.382h-2.617v-7.196h2.617V68.382z M71.309,57.916
				h-2.617v-7.197h2.617V57.916z M71.309,47.447h-2.617v-7.196h2.617V47.447z M71.309,36.98h-2.617v-7.196h2.617V36.98z
				 M71.309,26.513h-2.617v-7.196h2.617V26.513z M71.309,16.046h-2.617V8.851h2.617V16.046z"/>
			<path fill="#9e6d84" d="M72.484,89.185l-3.207-2.351c-0.327-0.266-0.521-0.654-0.521-1.048V82.12h2.617v2.944l2.685,1.963
				L72.484,89.185z"/>
			<path fill="#9e6d84" d="M132.211,130.145l-6.011-4.131l1.503-2.156l6.021,4.119L132.211,130.145z M123.645,124.316l-6.021-4.119
				l1.503-2.156l6.021,4.119L123.645,124.316z M115.141,118.428l-6.021-4.117l1.503-2.156l6.021,4.119L115.141,118.428z
				 M106.637,112.541l-6.021-4.119l1.502-2.156l6.021,4.119L106.637,112.541z M98.068,106.652l-6.021-4.118l1.503-2.157l6.021,4.12
				L98.068,106.652z M89.564,100.766l-6.021-4.119l1.503-2.162l6.021,4.125L89.564,100.766z M80.988,94.943l-6.016-4.125
				l1.508-2.157l6.011,4.12L80.988,94.943z"/>
			<path fill="#9e6d84" d="M138.691,134.324c-0.268,0-0.521-0.062-0.717-0.194l-3.209-2.155l1.44-2.156l1.175,0.775v-1.369H140
				v3.793c0,0.459-0.266,0.92-0.716,1.176C139.08,134.324,138.887,134.324,138.691,134.324z"/>
			<path fill="#9e6d84" d="M140,125.952h-2.617v-7.196H140V125.952z M140,115.484h-2.617v-7.195H140V115.484z M140,105.018h-2.617
				v-7.195H140V105.018z M140,94.55h-2.617v-7.195H140V94.55z M140,84.083h-2.617v-7.196H140V84.083z M140,73.616h-2.617V66.42H140
				V73.616z M140,63.149h-2.617v-7.197H140V63.149z"/>
			<path fill="#9e6d84" d="M140,53.336h-2.617v-3.338l-2.615-1.763l1.44-2.162l3.199,2.162c0.327,0.26,0.593,0.654,0.593,1.109
				V53.336z"/>
			<path fill="#9e6d84" d="M132.211,46.4l-6.011-4.186l1.503-2.157l6.021,4.186L132.211,46.4z M123.706,40.445l-6.011-4.186
				l1.503-2.157l6.021,4.186L123.706,40.445z M115.141,34.559l-6.021-4.186l1.503-2.157l6.021,4.186L115.141,34.559z
				 M106.637,28.609l-6.021-4.191l1.502-2.157l6.021,4.186L106.637,28.609z M98.068,22.72l-6.021-4.191l1.503-2.157l6.021,4.186
				L98.068,22.72z M89.564,16.767l-6.021-4.186l1.503-2.162l6.021,4.186L89.564,16.767z M80.988,10.879l-6.016-4.186l1.508-2.162
				l6.011,4.186L80.988,10.879z"/>
		</g>
	</g>
	<g>
		<polygon fill="#af7c92" points="70.327,46.333 34.019,71.393 70.327,96.38 106.697,71.393 		"/>
		<polygon fill="#a37086" points="70.654,140.866 70.654,96.38 34.019,71.393 34.019,115.68 		"/>
		<polygon fill="#a37086" points="70.654,140.866 70.654,96.38 106.637,71.393 106.637,115.68 		"/>
	</g>
	<g opacity="0.2">
		<polygon fill="#af7c92" points="70.327,2.44 2.29,49.344 70.327,96.253 138.426,49.344 		"/>
		<polygon fill="#a37086" points="70.654,179.536 70.654,96.253 1.962,49.344 1.962,132.361 		"/>
		<polygon fill="#a37086" points="70.654,179.536 70.654,96.253 138.037,49.344 138.037,132.361 		"/>
	</g>
</g>
</svg>
