<?xml version="1.0" encoding="UTF-8" standalone="no"?>
<svg
   xmlns:dc="http://purl.org/dc/elements/1.1/"
   xmlns:cc="http://creativecommons.org/ns#"
   xmlns:rdf="http://www.w3.org/1999/02/22-rdf-syntax-ns#"
   xmlns:svg="http://www.w3.org/2000/svg"
   xmlns="http://www.w3.org/2000/svg"
   viewBox="0 0 800 800"
   height="800"
   width="800"
   xml:space="preserve"
   version="1.1"
   id="svg3393"><metadata
     id="metadata3399"><rdf:RDF><cc:Work
         rdf:about=""><dc:format>image/svg+xml</dc:format><dc:type
           rdf:resource="http://purl.org/dc/dcmitype/StillImage" /><dc:title></dc:title></cc:Work></rdf:RDF></metadata><defs
     id="defs3397"><clipPath
       id="clipPath3407"
       clipPathUnits="userSpaceOnUse"><path
         id="path3409"
         d="m 0,0 1920,0 0,1080 L 0,1080 0,0 Z" /></clipPath><clipPath
       id="clipPath3421"
       clipPathUnits="userSpaceOnUse"><path
         id="path3423"
         d="m 0,0 1920,0 0,1080 L 0,1080 0,0 Z" /></clipPath><clipPath
       id="clipPath3443"
       clipPathUnits="userSpaceOnUse"><path
         id="path3445"
         d="m 632.293,806.119 125.911,-456.663 105.499,0 133.774,0 106.624,0 83.764,363.429 -126.44,242.664 -429.132,-149.43 z" /></clipPath></defs><g
     transform="matrix(1.25,0,0,-1.25,0,800)"
     id="g3401"><g
       transform="matrix(1.5076006,0,0,1.5076006,305.77079,200.23483)"
       id="g3431"><path
         id="path3433"
         style="fill:#748748;fill-opacity:1;fill-rule:nonzero;stroke:none"
         d="m 0,0 67.241,-130.109 106.625,0 L 0,206.313 l -172.032,-336.422 105.5,0 L 0,0 Z" /></g><g
       transform="matrix(1.5076006,0,0,1.5076006,334.84129,239.71583)"
       id="g3435"><path
         id="path3437"
         style="fill:#95b65e;fill-opacity:1;fill-rule:nonzero;stroke:none"
         d="m 0,0 77.773,-135.628 93.853,0 -173.866,336.423 -172.031,-336.423 105.499,0 L 0,0 Z" /></g><g
       transform="matrix(1.5076006,0,0,1.5076006,-1070.9588,-522.75858)"
       id="g3439"><g
         clip-path="url(#clipPath3443)"
         id="g3441"><g
           transform="translate(966.3952,642.8337)"
           id="g3447"><path
             id="path3449"
             style="fill:#231f20;fill-opacity:1;fill-rule:nonzero;stroke:none"
             d="M 0,0 C -2.569,8.209 -4.462,16.63 -5.651,25.148 -5.748,17.694 -5.843,10.24 -5.939,2.785 -9.004,9.9 -12.422,16.862 -16.173,23.641 c 2.268,-7.416 4.537,-14.831 6.804,-22.247 -4.832,6.436 -10.285,12.407 -16.258,17.802 5.281,-6.49 9.955,-13.476 13.938,-20.835 -7.023,6.691 -14.589,12.812 -22.6,18.283 8.65,-7.21 16.079,-15.88 21.876,-25.534" /></g><g
           transform="translate(964.5476,642.2655)"
           id="g3451"><path
             id="path3453"
             style="fill:#231f20;fill-opacity:1;fill-rule:nonzero;stroke:none"
             d="m 0,0 c -0.52,2.076 -1.021,4.245 -1.458,6.358 -0.443,2.13 -0.841,4.265 -1.195,6.407 -0.708,4.282 -1.237,8.584 -1.587,12.889 l -10e-4,0.001 0.878,0.056 0.685,-22.374 0,-0.002 c 0.024,-0.774 -0.585,-1.42 -1.359,-1.444 -0.612,-0.019 -1.145,0.362 -1.354,0.902 -2.748,7.199 -5.858,14.278 -9.318,21.199 l -0.002,0.003 0.807,0.342 7.989,-21.879 0,-0.004 C -5.598,1.59 -6.044,0.632 -6.909,0.317 -7.643,0.048 -8.447,0.332 -8.865,0.954 -13.301,7.55 -18.397,13.752 -24.07,19.433 l -0.004,0.004 0.636,0.605 c 5.613,-6.253 10.665,-13.061 15.055,-20.314 l 0.004,-0.007 c 0.477,-0.777 0.233,-1.795 -0.544,-2.271 -0.674,-0.413 -1.526,-0.286 -2.052,0.261 l -0.014,0.015 c -6.675,6.921 -13.934,13.324 -21.692,19.116 l -0.009,0.006 0.531,0.702 c 1.123,-0.861 2.231,-1.743 3.325,-2.645 1.088,-0.909 2.159,-1.839 3.217,-2.788 1.05,-0.956 2.084,-1.932 3.102,-2.925 1.011,-1.001 2.005,-2.021 2.983,-3.059 0.969,-1.043 1.923,-2.105 2.858,-3.185 0.927,-1.086 1.836,-2.188 2.726,-3.309 0.884,-1.125 1.747,-2.267 2.591,-3.425 0.836,-1.165 1.653,-2.344 2.449,-3.54 0.593,-0.889 0.352,-2.091 -0.537,-2.683 -0.89,-0.592 -2.091,-0.351 -2.683,0.538 -0.031,0.047 -0.061,0.094 -0.088,0.143 l -0.005,0.012 c -0.662,1.213 -1.346,2.415 -2.051,3.606 -0.714,1.186 -1.448,2.362 -2.205,3.524 -0.765,1.158 -1.549,2.304 -2.356,3.435 -0.813,1.127 -1.647,2.241 -2.501,3.34 -0.862,1.094 -1.744,2.174 -2.644,3.239 -0.908,1.059 -1.836,2.103 -2.783,3.131 -0.953,1.021 -1.925,2.028 -2.916,3.017 -0.998,0.983 -2.012,1.949 -3.046,2.897 l -0.004,0.003 c -0.18,0.165 -0.192,0.444 -0.026,0.624 0.146,0.16 0.383,0.187 0.56,0.075 l 0.009,-0.005 C -23.927,12.424 -16.061,6.589 -8.695,0.134 l -2.609,-1.996 -0.004,0.006 c -3.575,7.46 -7.867,14.617 -12.813,21.342 -0.145,0.196 -0.105,0.473 0.092,0.618 0.166,0.125 0.392,0.111 0.545,-0.013 l 0.005,-0.004 C -17.21,14.982 -11.404,9.245 -6.178,2.971 l -2.95,-1.5 -10e-4,0.005 -5.618,22.604 -0.002,0.005 c -0.058,0.238 0.087,0.478 0.324,0.537 0.192,0.048 0.387,-0.039 0.485,-0.2 l 10e-4,-0.004 C -9.896,17.787 -6.174,10.94 -2.793,3.913 l -2.713,-0.541 0,0.001 1.262,22.349 c 0.014,0.244 0.222,0.431 0.466,0.416 0.206,-0.011 0.37,-0.162 0.408,-0.355 l 0.002,-0.006 0,-0.002 c 0.84,-4.212 1.852,-8.38 3.031,-12.489 C 0.252,11.231 0.883,9.191 1.555,7.167 2.232,5.127 2.931,3.164 3.696,1.136 4.073,0.135 3.568,-0.982 2.567,-1.36 1.566,-1.738 0.449,-1.232 0.071,-0.23 0.044,-0.16 0.022,-0.09 0.005,-0.019 L 0,0 Z" /></g><g
           transform="translate(993.8062,554.2692)"
           id="g3455"><path
             id="path3457"
             style="fill:#c2b59b;fill-opacity:1;fill-rule:nonzero;stroke:none"
             d="m 0,0 c -1.959,-7.699 2.435,-15.375 5.607,-22.658 8.692,-19.951 8.591,-43.551 -0.272,-63.426 -1.991,-4.462 -19.056,49.276 -18.598,44.411 0.333,-3.528 9.051,-68.867 14.68,-80.447 20.552,-42.279 37.886,-74 26.425,-118.616 -2.244,-8.735 -10.913,-20.574 -17.397,-26.841 -6.703,-6.479 -16.105,-9.246 -25.229,-11.162 -19.052,-4 -38.557,-5.254 -57.984,-6.499 -22.94,-1.47 -48.745,-1.974 -65.5,13.763 -8.766,8.234 -16.135,21.196 -28.144,20.534 -4.002,-0.22 -7.778,-2.075 -11.781,-2.295 -4.471,-0.246 -8.772,1.555 -12.876,3.349 -13.961,6.1 -27.789,12.506 -41.473,19.205 -6.167,3.022 -13.37,8.179 -11.835,14.874 31.141,-0.578 59.717,-19.333 90.849,-20.261 -6.592,25.016 -13.241,50.823 -9.779,76.46 1.504,11.131 4.884,21.911 8.251,32.627 17.606,56.049 35.213,112.099 52.819,168.149 3.541,11.271 7.124,22.871 6.301,34.657 -1.621,23.254 -20.144,44.645 -15.15,67.415 0.301,1.375 0.715,2.782 1.655,3.83 3.744,4.178 5.761,-3.676 8.674,-8.469 7.517,-12.372 9.369,-25.309 12.919,-39.343 1.931,-7.632 4.229,-22.572 10.569,-30.535 4.904,-6.158 14.294,-3.083 22.083,-4.21 1.923,1.021 2.009,3.663 2.237,5.827 1.219,11.589 12.276,25.974 22.657,31.267 14.047,7.161 41.205,10.625 56.959,9.982 C 42.422,110.945 46.232,101.439 47.806,85.751 48.816,75.693 44.711,61.165 39.323,52.613 30.373,38.409 20.081,25.052 8.627,12.78 5.08,8.979 1.281,5.038 0,0" /></g><g
           transform="translate(879.257,273.6851)"
           id="g3459"><path
             id="path3461"
             style="fill:#a39479;fill-opacity:1;fill-rule:nonzero;stroke:none"
             d="m 0,0 c -2.858,-0.047 -5.737,-0.091 -8.546,0.437 -13.65,2.565 -21.068,16.982 -27.042,29.52 -1.499,3.149 -3.596,6.697 -7.064,7.054 -2.317,0.238 -4.466,-1.075 -6.627,-1.945 -4.139,-1.667 -8.727,-1.76 -13.188,-1.627 -17.887,0.529 -35.673,4.34 -52.207,11.185 -6.164,2.552 -13.265,7.804 -11.355,14.195 20.28,-14.209 46.535,-19.578 70.765,-14.471 3.233,0.681 6.499,1.571 9.233,3.428 9.777,6.642 8.285,21.109 7.006,32.86 -3.649,33.53 3.627,67.249 12.394,99.817 7.57,28.117 16.282,55.911 24.991,83.695 5.346,17.051 10.691,34.102 16.036,51.153 5.105,-11.206 3.844,-24.144 2.48,-36.383 C 12.943,243.634 9.002,208.293 1.91,173.506 -0.313,162.603 -2.859,151.557 -1.915,140.47 c 0.817,-9.585 4.232,-18.801 8.757,-27.289 4.02,-7.544 9.062,-14.74 15.936,-19.822 8.311,-6.144 18.645,-8.759 28.733,-11.004 25.448,-5.665 52.683,-9.713 77.072,-0.502 4.857,1.836 11.507,3.651 14.273,-0.744 0.793,-1.258 1.019,-2.782 1.175,-4.26 C 146.489,53.597 135.93,30.442 120.456,12.912 117.369,9.416 113.986,6.022 109.755,4.056 104.783,1.746 99.113,1.615 93.63,1.526 62.42,1.017 31.21,0.509 0,0" /></g><g
           transform="translate(927.3626,607.5067)"
           id="g3463"><path
             id="path3465"
             style="fill:#231f20;fill-opacity:1;fill-rule:nonzero;stroke:none"
             d="m 0,0 c -0.019,0 0.305,0.132 0.726,0.387 0.445,0.274 1.088,0.714 1.755,1.416 1.33,1.391 2.723,3.976 3.237,7.619 0.056,0.447 0.107,0.924 0.136,1.38 0.02,0.269 0.059,0.587 0.064,0.828 0.009,0.253 0.018,0.509 0.027,0.768 0.06,1.091 0.055,2.281 0.099,3.581 0.033,1.301 0.079,2.718 0.242,4.266 0.141,1.548 0.453,3.241 0.989,5.029 l 0.049,0.168 c -0.015,-0.034 0.079,0.236 0.087,0.255 l 0.098,0.273 0.207,0.545 c 0.195,0.446 0.43,0.969 0.659,1.377 0.469,0.836 1.009,1.634 1.637,2.367 1.244,1.478 2.782,2.686 4.322,3.822 1.551,1.132 3.073,2.253 4.52,3.503 0.72,0.61 1.451,1.23 2.192,1.857 0.773,0.618 1.558,1.244 2.353,1.878 6.378,4.917 14.028,9.617 22.948,13.36 4.443,1.907 9.199,3.571 14.234,4.922 5.028,1.37 10.341,2.421 15.881,3.057 2.77,0.335 5.599,0.552 8.475,0.646 2.877,0.101 5.802,0.107 8.765,-0.046 2.963,-0.144 5.966,-0.401 8.99,-0.832 3.017,-0.4 6.222,-0.952 9.315,-2.461 1.533,-0.767 3.023,-1.815 4.224,-3.205 0.574,-0.648 1.127,-1.459 1.552,-2.246 0.431,-0.793 0.778,-1.619 1.059,-2.455 0.56,-1.672 0.863,-3.373 1.05,-5.049 l 0.063,-0.662 0.046,-0.599 0.089,-1.209 c 0.02,-0.85 0.081,-1.729 0.057,-2.564 -0.011,-6.772 -1.475,-13.603 -3.72,-20.275 C 114.113,15.049 110.954,8.518 107,2.408 c -1.977,-3.053 -4.128,-6.02 -6.452,-8.861 -1.145,-1.437 -2.359,-2.814 -3.574,-4.208 -1.222,-1.348 -2.45,-2.702 -3.682,-4.061 -4.966,-5.379 -10.08,-10.635 -14.974,-16.15 -4.843,-5.543 -9.492,-11.386 -13.005,-18.034 -1.771,-3.321 -3.227,-6.794 -4.288,-10.511 -1.038,-3.626 -1.705,-7.496 -2.025,-11.388 -0.67,-7.801 0.008,-15.863 1.011,-23.852 2.05,-16.049 6.423,-32.069 11.934,-47.948 5.553,-15.888 12.352,-31.631 19.105,-47.709 3.41,-8.029 6.813,-16.147 10.066,-24.415 1.613,-4.124 3.225,-8.329 4.726,-12.538 1.521,-4.261 2.953,-8.615 4.167,-13.128 1.194,-4.516 2.197,-9.181 2.721,-14.014 0.072,-0.602 0.132,-1.208 0.176,-1.817 l 0.076,-0.911 c 0.014,-0.206 0.023,-0.184 0.04,-0.577 l 0.021,-0.418 0.088,-1.672 0.021,-0.42 0.007,-0.479 0.013,-0.96 c 0.032,-1.307 -0.009,-2.518 -0.04,-3.744 -0.046,-1.227 -0.124,-2.452 -0.22,-3.675 -0.855,-9.79 -3.538,-19.364 -7.568,-28.21 -4.001,-8.88 -9.3,-17.064 -15.396,-24.52 -3.057,-3.727 -6.34,-7.255 -9.797,-10.599 -0.856,-0.845 -1.744,-1.656 -2.622,-2.478 l -1.316,-1.192 -1.428,-1.246 c -1.893,-1.619 -3.921,-3.186 -6.126,-4.667 -2.205,-1.475 -4.599,-2.857 -7.231,-4.006 -2.627,-1.149 -5.505,-2.061 -8.549,-2.54 l -1.15,-0.146 -0.577,-0.066 c -0.254,-0.025 -0.242,-0.039 -0.717,-0.07 l -0.845,-0.051 -1.283,-0.033 c -1.549,-0.008 -2.967,0.084 -4.364,0.232 -2.778,0.3 -5.29,0.828 -7.591,1.34 -4.5,1.053 -8.599,1.89 -12.777,2.579 -4.227,0.707 -8.482,1.242 -12.747,1.614 -8.527,0.792 -17.099,0.901 -25.609,0.421 -4.254,-0.264 -8.492,-0.678 -12.706,-1.212 -4.112,-0.486 -8.483,-1.396 -13.539,-1.876 -2.514,-0.236 -5.196,-0.333 -7.979,-0.142 -0.652,0.048 -0.418,0.038 -0.672,0.06 l -0.412,0.043 -0.826,0.086 c -0.228,0.018 -0.675,0.089 -1.04,0.142 l -1.138,0.181 -0.568,0.093 -0.511,0.11 -1.019,0.225 c -0.682,0.138 -1.346,0.338 -2.013,0.523 -5.339,1.532 -10.206,4.16 -14.372,7.339 -4.17,3.194 -7.685,6.915 -10.704,10.85 -3.025,3.94 -5.515,8.135 -7.628,12.445 -2.097,4.318 -3.814,8.757 -5.173,13.295 -0.354,1.24 -0.6,2.053 -0.92,3.275 l -0.453,1.714 -0.405,1.673 c -0.532,2.229 -1.007,4.467 -1.41,6.713 -1.641,8.991 -2.279,18.033 -1.971,27.046 0.324,8.9 1.571,17.435 2.571,25.584 0.508,4.086 0.954,8.066 1.274,12.064 0.301,4.088 0.6,8.156 0.898,12.202 0.313,4.096 0.654,8.279 1.209,12.388 0.226,1.959 0.567,4.077 0.879,6.145 0.317,2.073 0.705,4.061 1.056,6.084 1.542,8.028 3.476,15.824 5.619,23.404 4.307,15.16 9.416,29.444 14.194,43.219 4.798,13.781 9.435,27.098 13.885,39.881 4.426,12.792 8.668,25.05 12.703,36.709 4,11.689 8.069,22.626 10.553,33.113 0.62,2.622 1.152,5.212 1.589,7.77 0.423,2.543 0.736,5.119 0.946,7.532 0.186,2.616 0.298,4.954 0.283,7.396 0,2.417 -0.088,4.794 -0.246,7.124 -0.628,9.33 -2.177,17.891 -3.594,25.635 -2.837,15.481 -5.928,27.491 -7.873,35.746 -1.984,8.257 -3.041,12.661 -3.041,12.661 -0.289,1.2 0.451,2.407 1.65,2.695 1.201,0.288 2.407,-0.451 2.695,-1.652 0.011,-0.045 0.02,-0.09 0.028,-0.135 l 0.004,-0.026 c 0,0 0.19,-1.107 0.56,-3.25 0.403,-2.139 0.996,-5.314 1.856,-9.447 0.868,-4.131 2.002,-9.218 3.376,-15.201 1.366,-5.978 2.95,-12.894 4.567,-20.632 1.623,-7.739 3.431,-16.379 4.336,-26.033 0.227,-2.411 0.383,-4.885 0.449,-7.417 0.086,-2.508 0.025,-5.216 -0.091,-7.727 -0.163,-2.711 -0.419,-5.335 -0.794,-8.052 -0.389,-2.699 -0.874,-5.424 -1.45,-8.168 -2.345,-10.991 -6.076,-22.17 -9.678,-33.941 -3.651,-11.783 -7.491,-24.174 -11.497,-37.103 -3.982,-12.938 -8.13,-26.414 -12.423,-40.362 -4.277,-13.962 -8.805,-28.29 -12.431,-43.122 -1.805,-7.416 -3.379,-14.956 -4.559,-22.609 -0.256,-1.909 -0.564,-3.85 -0.779,-5.744 -0.215,-1.9 -0.453,-3.754 -0.614,-5.803 -0.394,-3.887 -0.584,-7.788 -0.758,-11.818 -0.169,-4.019 -0.294,-8.124 -0.5,-12.314 -0.196,-4.214 -0.531,-8.466 -0.912,-12.642 -0.764,-8.368 -1.63,-16.505 -1.692,-24.53 -0.068,-7.898 0.7,-15.955 2.351,-23.829 0.405,-1.973 0.874,-3.935 1.393,-5.886 l 0.393,-1.463 0.41,-1.405 c 0.241,-0.863 0.646,-2.111 0.908,-2.944 1.217,-3.719 2.737,-7.362 4.533,-10.831 1.818,-3.452 3.882,-6.757 6.231,-9.736 2.351,-2.97 4.979,-5.628 7.837,-7.745 2.863,-2.108 5.937,-3.66 9.123,-4.52 0.4,-0.1 0.794,-0.224 1.2,-0.29 l 0.603,-0.125 0.302,-0.063 0.251,-0.033 0.503,-0.075 c 0.183,-0.026 0.28,-0.06 0.604,-0.082 l 1.399,-0.123 c 1.641,-0.084 3.406,-0.012 5.311,0.198 3.788,0.398 8.14,1.342 12.87,1.998 4.617,0.673 9.269,1.169 13.94,1.479 9.343,0.595 18.758,0.538 28.136,-0.267 4.691,-0.389 9.368,-0.982 14.021,-1.752 4.707,-0.766 9.437,-1.746 13.715,-2.743 2.096,-0.468 4.009,-0.845 5.716,-1.022 0.845,-0.091 1.681,-0.136 2.386,-0.133 l 0.408,0.004 0.844,0.052 c -0.193,-0.017 0.098,0.015 0.123,0.019 l 0.264,0.032 0.528,0.055 c 2.823,0.414 5.89,1.756 8.994,3.806 1.553,1.018 3.105,2.207 4.665,3.489 l 1.142,0.954 1.214,1.056 c 0.782,0.702 1.576,1.395 2.339,2.12 3.094,2.858 6.006,5.901 8.762,9.065 5.527,6.315 10.29,13.241 14.049,20.585 3.721,7.356 6.412,15.157 7.576,23.154 0.142,0.999 0.273,2 0.375,3.003 0.09,1.004 0.19,2.023 0.226,2.949 l 0.041,0.713 0.022,0.357 0.005,0.418 0.02,1.674 0.006,0.418 c 0.006,-0.113 -0.003,0.187 -0.003,0.258 l -0.015,0.759 c -0.003,0.504 -0.019,1.011 -0.049,1.519 -0.158,4.059 -0.708,8.183 -1.49,12.323 -0.793,4.139 -1.829,8.305 -2.984,12.473 l -0.891,3.158 -0.917,3.129 c -0.629,2.093 -1.258,4.183 -1.886,6.271 -2.569,8.346 -5.32,16.63 -8.102,24.874 -5.626,16.462 -11.292,32.803 -16.04,49.153 -4.766,16.336 -8.452,32.76 -10.154,49.084 -0.188,2.042 -0.394,4.104 -0.52,6.122 l -0.189,3.026 c -0.061,1.041 -0.12,2.036 -0.159,3.057 -0.163,4.057 -0.202,8.108 -0.015,12.146 0.193,4.047 0.628,8.036 1.417,12.053 l 0.308,1.447 0.077,0.359 0.097,0.392 0.184,0.736 c 0.226,0.986 0.511,1.953 0.785,2.924 0.58,1.932 1.234,3.836 1.958,5.709 2.943,7.475 7.003,14.351 11.485,20.62 4.456,6.305 9.341,12.028 14.097,17.526 2.355,2.718 4.691,5.412 7.005,8.083 2.275,2.66 4.507,5.293 6.651,7.948 4.274,5.304 8.254,10.71 11.152,16.558 2.915,5.817 4.641,12.1 4.748,18.303 0.042,0.784 0,1.519 0.004,2.277 l -0.06,1.199 -0.032,0.6 -0.04,0.536 c -0.131,1.504 -0.365,2.959 -0.781,4.297 -0.208,0.669 -0.46,1.306 -0.766,1.899 -0.312,0.602 -0.629,1.104 -1.074,1.639 -0.822,1 -1.892,1.806 -3.098,2.447 -2.442,1.27 -5.314,1.886 -8.222,2.328 -2.917,0.468 -5.822,0.74 -8.691,0.919 -2.869,0.179 -5.708,0.227 -8.499,0.126 -2.792,-0.083 -5.541,-0.284 -8.23,-0.603 C 66.037,58.435 56.201,55.499 47.671,51.652 39.131,47.796 31.883,43.064 25.891,38.186 25.159,37.571 24.437,36.963 23.726,36.363 23.018,35.73 22.321,35.105 21.633,34.489 20.304,33.244 19.207,31.85 18.39,30.382 17.562,28.922 16.981,27.45 16.452,26.149 16.198,25.519 15.949,24.899 15.704,24.29 15.464,23.713 15.228,23.146 14.997,22.59 14.082,20.371 13.653,17.762 13.143,15.202 12.905,13.919 12.623,12.643 12.318,11.404 12.23,11.081 12.142,10.762 12.057,10.448 11.968,10.122 11.881,9.887 11.795,9.608 11.604,8.965 11.386,8.386 11.147,7.82 10.208,5.565 8.957,3.773 7.665,2.423 6.355,1.083 4.992,0.201 3.812,-0.259 2.638,-0.743 1.696,-0.86 1.077,-0.884 0.426,-0.923 0.186,-0.848 0.17,-0.864 -0.069,-0.911 -0.3,-0.756 -0.347,-0.517 -0.394,-0.278 -0.239,-0.047 0,0" /></g><g
           transform="translate(1024.6139,663.1035)"
           id="g3467"><path
             id="path3469"
             style="fill:#231f20;fill-opacity:1;fill-rule:nonzero;stroke:none"
             d="m 0,0 c -1.822,-6.075 -1.215,-13.364 3.037,-13.364 4.253,0 5.467,4.252 7.29,0.608 1.822,-3.645 1.822,-9.72 1.822,-9.72 0,0 3.48,6.151 6.074,9.72 C 20.819,-9.189 13.972,4.253 10.934,4.253 7.897,4.253 0,0 0,0" /></g><g
           transform="translate(976.4497,657.8362)"
           id="g3471"><path
             id="path3473"
             style="fill:#231f20;fill-opacity:1;fill-rule:nonzero;stroke:none"
             d="m 0,0 c 0,0 0.333,0.502 0.915,1.381 0.605,0.904 1.466,2.156 2.551,3.635 1.085,1.477 2.388,3.164 3.845,4.913 1.472,1.752 3.026,3.542 4.804,5.328 1.768,1.764 3.792,3.45 6.027,4.556 1.104,0.549 2.258,0.957 3.415,1.173 1.13,0.212 2.218,0.236 3.201,0.131 0.983,-0.107 1.865,-0.34 2.598,-0.654 0.729,-0.318 1.33,-0.659 1.769,-1.013 0.446,-0.341 0.764,-0.642 0.959,-0.864 0.198,-0.217 0.305,-0.333 0.305,-0.333 0.18,-0.198 0.167,-0.506 -0.032,-0.687 -0.17,-0.155 -0.422,-0.167 -0.604,-0.041 l -0.045,0.032 c 0,0 -0.112,0.078 -0.323,0.223 -0.205,0.151 -0.528,0.341 -0.951,0.533 -0.417,0.207 -0.964,0.366 -1.584,0.486 -0.623,0.116 -1.345,0.136 -2.112,0.047 -0.766,-0.091 -1.582,-0.297 -2.38,-0.645 -0.772,-0.337 -1.556,-0.827 -2.305,-1.439 -1.49,-1.217 -2.796,-2.894 -3.967,-4.744 C 14.926,10.174 13.814,8.122 12.845,6.243 11.876,4.348 11.04,2.553 10.363,1.003 9.689,-0.545 9.162,-1.862 8.814,-2.764 8.458,-3.7 8.254,-4.234 8.254,-4.234 L 8.251,-4.241 C 7.334,-6.65 4.637,-7.86 2.228,-6.942 c -2.41,0.918 -3.618,3.615 -2.7,6.024 C -0.35,-0.597 -0.182,-0.277 0,0" /></g><g
           transform="translate(968.1646,267.4218)"
           id="g3475"><path
             id="path3477"
             style="fill:#231f20;fill-opacity:1;fill-rule:nonzero;stroke:none"
             d="m 0,0 c 0,0 0.87,-0.051 2.395,-0.138 0.759,-0.034 1.688,-0.112 2.762,-0.215 1.075,-0.088 2.286,-0.207 3.594,-0.381 1.317,-0.143 2.736,-0.358 4.238,-0.595 1.506,-0.22 3.076,-0.548 4.713,-0.853 1.623,-0.358 3.313,-0.702 5.006,-1.151 1.709,-0.404 3.414,-0.92 5.136,-1.404 1.698,-0.546 3.417,-1.062 5.072,-1.67 1.674,-0.566 3.285,-1.218 4.861,-1.825 1.55,-0.656 3.071,-1.264 4.474,-1.924 1.411,-0.643 2.744,-1.264 3.951,-1.885 1.222,-0.595 2.323,-1.178 3.292,-1.711 0.976,-0.522 1.824,-0.986 2.506,-1.395 1.377,-0.801 2.164,-1.259 2.164,-1.259 2.364,-1.374 3.164,-4.406 1.789,-6.769 -1.375,-2.364 -4.405,-3.164 -6.769,-1.788 -0.215,0.125 -0.419,0.264 -0.609,0.416 l -0.116,0.096 c 0,0 -0.647,0.525 -1.78,1.445 -0.562,0.47 -1.265,1.009 -2.079,1.623 -0.807,0.625 -1.728,1.315 -2.761,2.034 -1.017,0.744 -2.151,1.504 -3.359,2.3 -1.198,0.813 -2.512,1.59 -3.858,2.428 -1.371,0.789 -2.781,1.634 -4.259,2.405 -1.461,0.814 -2.991,1.545 -4.512,2.312 -1.546,0.706 -3.086,1.449 -4.641,2.083 -1.541,0.679 -3.094,1.254 -4.591,1.84 -1.513,0.533 -2.972,1.086 -4.383,1.521 -1.406,0.454 -2.741,0.875 -3.99,1.212 -1.243,0.367 -2.387,0.662 -3.405,0.909 -1.015,0.26 -1.909,0.478 -2.66,0.63 -1.492,0.323 -2.344,0.507 -2.344,0.507 -0.329,0.071 -0.538,0.395 -0.467,0.723 C -0.566,-0.182 -0.294,0.017 0,0" /></g><g
           transform="translate(953.9176,266.4309)"
           id="g3479"><path
             id="path3481"
             style="fill:#231f20;fill-opacity:1;fill-rule:nonzero;stroke:none"
             d="m 0,0 c 0,0 0.967,-0.081 2.66,-0.225 0.846,-0.071 1.874,-0.158 3.052,-0.258 l 0.223,-0.019 0.056,-0.004 0.028,-0.003 0.082,-0.013 0.113,-0.017 c 0.15,-0.024 0.303,-0.048 0.458,-0.072 0.31,-0.048 0.63,-0.097 0.956,-0.149 0.662,-0.118 1.383,-0.262 2.115,-0.417 2.909,-0.646 6.244,-1.688 9.684,-3.091 3.444,-1.392 6.997,-3.115 10.477,-4.884 6.91,-3.538 13.82,-7.076 19.003,-9.73 2.59,-1.328 4.748,-2.433 6.258,-3.207 0.108,-0.057 0.214,-0.113 0.318,-0.166 l 0.122,-0.072 0.171,-0.105 c 0.103,-0.071 0.205,-0.141 0.306,-0.208 0.415,-0.313 0.924,-0.717 1.435,-1.552 0.248,-0.411 0.483,-0.98 0.586,-1.597 0.111,-0.63 0.068,-1.287 -0.065,-1.84 -0.066,-0.203 -0.132,-0.402 -0.196,-0.6 l -0.009,-0.024 c -0.078,-0.188 -0.184,-0.4 -0.3,-0.589 -0.222,-0.376 -0.562,-0.762 -0.82,-0.984 -0.214,-0.187 -0.447,-0.355 -0.688,-0.495 -0.258,-0.153 -0.436,-0.228 -0.653,-0.312 -0.2,-0.077 -0.449,-0.15 -0.61,-0.182 -0.323,-0.072 -0.711,-0.11 -0.947,-0.106 -1.077,0.026 -1.685,0.253 -2.42,0.666 -0.194,0.122 -0.328,0.206 -0.559,0.4 -0.102,0.085 -0.2,0.175 -0.291,0.267 l -0.131,0.135 -0.174,0.204 c -0.115,0.143 -0.218,0.289 -0.309,0.437 -0.097,0.159 -0.159,0.26 -0.271,0.513 -0.196,0.453 -0.308,0.896 -0.349,1.351 -0.042,0.503 0.012,1.013 0.125,1.444 0.112,0.418 0.233,0.671 0.387,0.963 0.142,0.263 0.338,0.534 0.458,0.676 0.098,0.115 0.194,0.216 0.281,0.302 0.356,0.347 0.566,0.48 0.566,0.48 1.862,1.302 4.428,0.849 5.73,-1.013 1.303,-1.861 0.85,-4.426 -1.012,-5.729 0,0 0.188,0.112 0.5,0.419 0.077,0.076 0.159,0.165 0.244,0.27 0.107,0.127 0.295,0.378 0.425,0.622 0.146,0.272 0.249,0.506 0.357,0.898 0.111,0.405 0.163,0.888 0.117,1.364 -0.037,0.425 -0.136,0.84 -0.323,1.261 -0.11,0.236 -0.16,0.324 -0.246,0.469 -0.083,0.133 -0.176,0.265 -0.279,0.393 l -0.157,0.182 -0.111,0.118 c -0.078,0.078 -0.16,0.154 -0.248,0.227 -0.204,0.164 -0.299,0.23 -0.458,0.327 -0.588,0.324 -0.999,0.482 -1.85,0.504 -0.178,-0.002 -0.509,-0.023 -0.772,-0.088 -0.131,-0.03 -0.352,-0.088 -0.523,-0.156 -0.189,-0.073 -0.335,-0.141 -0.569,-0.273 -0.214,-0.122 -0.421,-0.273 -0.608,-0.441 -0.234,-0.201 -0.556,-0.559 -0.757,-0.909 -0.106,-0.177 -0.2,-0.376 -0.268,-0.55 l 0.01,0.023 0.011,0.023 0.005,0.012 0.003,0.006 c -0.079,-0.243 0.181,0.552 -0.176,-0.544 -0.108,-0.418 -0.13,-0.928 -0.048,-1.407 0.075,-0.468 0.259,-0.885 0.422,-1.154 0.345,-0.55 0.595,-0.702 0.711,-0.786 l 0.072,-0.043 0.047,-0.024 0.027,-0.015 -0.031,0.022 c 0.001,0.006 -0.146,0.099 -0.215,0.147 -1.414,0.94 -3.433,2.282 -5.856,3.892 -4.846,3.219 -11.306,7.509 -17.765,11.801 -3.217,2.123 -6.444,4.163 -9.573,5.862 -3.124,1.707 -6.158,3.047 -8.844,3.972 -0.67,0.224 -1.297,0.427 -1.924,0.614 -0.32,0.087 -0.632,0.173 -0.934,0.255 -0.151,0.042 -0.301,0.083 -0.447,0.124 l -0.11,0.03 -0.014,0.003 C 5.675,-2.372 5.783,-2.392 5.73,-2.382 l -0.027,0.006 -0.055,0.01 -0.219,0.045 c -1.159,0.231 -2.169,0.432 -3,0.6 -1.664,0.331 -2.614,0.522 -2.614,0.522 -0.328,0.066 -0.542,0.386 -0.476,0.715 0.062,0.306 0.343,0.512 0.646,0.485 L 0,0 Z" /></g><g
           transform="translate(947.2299,266.5346)"
           id="g3483"><path
             id="path3485"
             style="fill:#231f20;fill-opacity:1;fill-rule:nonzero;stroke:none"
             d="M 0,0 C 0,0 0.645,-0.233 1.774,-0.639 2.339,-0.831 3.023,-1.102 3.813,-1.428 4.608,-1.74 5.499,-2.11 6.447,-2.546 7.41,-2.96 8.43,-3.457 9.51,-3.994 c 1.089,-0.523 2.193,-1.152 3.36,-1.779 1.137,-0.668 2.333,-1.342 3.499,-2.105 1.193,-0.731 2.348,-1.553 3.529,-2.358 1.142,-0.847 2.311,-1.679 3.4,-2.573 1.119,-0.864 2.161,-1.784 3.191,-2.665 0.993,-0.912 1.982,-1.78 2.858,-2.662 0.89,-0.873 1.728,-1.708 2.465,-2.514 0.757,-0.789 1.424,-1.539 2.004,-2.216 0.591,-0.67 1.099,-1.261 1.495,-1.767 0.81,-1.001 1.273,-1.572 1.273,-1.572 1.948,-2.411 1.573,-5.944 -0.837,-7.891 -2.41,-1.949 -5.942,-1.575 -7.891,0.835 -0.266,0.33 -0.489,0.681 -0.67,1.046 l -0.061,0.128 c 0,0 -0.278,0.572 -0.764,1.571 -0.236,0.507 -0.551,1.106 -0.922,1.791 -0.359,0.693 -0.781,1.467 -1.275,2.293 -0.473,0.842 -1.028,1.728 -1.626,2.665 -0.584,0.948 -1.271,1.897 -1.959,2.907 -0.726,0.976 -1.46,2.01 -2.276,3.005 -0.787,1.024 -1.658,2.001 -2.511,3.008 -0.893,0.963 -1.772,1.957 -2.701,2.869 -0.905,0.945 -1.854,1.81 -2.763,2.67 -0.937,0.822 -1.831,1.648 -2.731,2.364 -0.888,0.732 -1.738,1.42 -2.551,2.016 -0.803,0.62 -1.552,1.154 -2.226,1.618 -0.665,0.473 -1.26,0.883 -1.772,1.2 -1.01,0.651 -1.586,1.021 -1.586,1.021 -0.283,0.184 -0.364,0.561 -0.182,0.844 C -0.563,0 -0.262,0.094 0,0" /></g><g
           transform="translate(890.4339,262.1838)"
           id="g3487"><path
             id="path3489"
             style="fill:#231f20;fill-opacity:1;fill-rule:nonzero;stroke:none"
             d="m 0,0 c 0.007,-0.009 -0.184,0.123 -0.478,0.27 -0.288,0.148 -0.755,0.365 -1.356,0.536 -0.6,0.176 -1.355,0.302 -2.2,0.283 C -4.449,1.08 -4.914,1.027 -5.331,0.929 -5.63,0.867 -5.791,0.817 -6.042,0.737 -6.277,0.663 -6.517,0.573 -6.762,0.472 c -0.98,-0.398 -2.025,-1.004 -3.208,-1.69 -1.179,-0.685 -2.421,-1.407 -3.707,-2.154 -2.554,-1.5 -5.249,-3.124 -7.855,-4.821 -1.304,-0.849 -2.589,-1.711 -3.816,-2.592 -0.622,-0.432 -1.224,-0.874 -1.809,-1.319 -0.593,-0.438 -1.17,-0.875 -1.72,-1.322 -1.121,-0.872 -2.152,-1.758 -3.113,-2.603 -0.471,-0.429 -0.929,-0.847 -1.372,-1.25 -0.424,-0.418 -0.832,-0.821 -1.225,-1.207 -0.78,-0.774 -1.442,-1.52 -2.037,-2.166 -0.563,-0.675 -1.07,-1.242 -1.455,-1.733 -0.756,-0.984 -1.188,-1.545 -1.188,-1.545 l -0.094,-0.123 c -1.884,-2.449 -5.397,-2.909 -7.847,-1.025 -2.449,1.883 -2.908,5.396 -1.025,7.846 0.222,0.288 0.49,0.568 0.753,0.801 0,0 0.663,0.579 1.823,1.594 0.584,0.498 1.322,1.062 2.151,1.722 0.852,0.626 1.803,1.342 2.875,2.052 0.537,0.353 1.094,0.719 1.672,1.1 0.587,0.354 1.194,0.72 1.817,1.099 1.256,0.726 2.584,1.475 3.978,2.176 0.691,0.366 1.402,0.711 2.124,1.053 0.717,0.35 1.446,0.69 2.187,1.015 1.473,0.67 2.979,1.299 4.486,1.904 3.016,1.212 6.038,2.303 8.869,3.292 1.412,0.486 2.778,0.956 4.073,1.4 1.289,0.441 2.595,0.9 3.901,1.15 0.325,0.064 0.65,0.116 0.971,0.151 0.305,0.036 0.694,0.063 0.933,0.063 0.659,0.018 1.223,-0.037 1.768,-0.131 1.079,-0.192 1.96,-0.533 2.636,-0.884 C -0.533,1.972 -0.062,1.627 0.267,1.366 0.439,1.233 0.534,1.141 0.607,1.077 0.68,1.013 0.717,0.978 0.717,0.978 0.987,0.782 1.046,0.402 0.848,0.132 0.65,-0.138 0.271,-0.197 0,0" /></g><g
           transform="translate(874.1122,269.4466)"
           id="g3491"><path
             id="path3493"
             style="fill:#231f20;fill-opacity:1;fill-rule:nonzero;stroke:none"
             d="m 0,0 c 0,0 -0.956,-0.014 -2.629,-0.041 -0.84,0 -1.847,-0.046 -2.992,-0.115 -0.573,-0.03 -1.183,-0.062 -1.825,-0.097 -0.644,-0.055 -1.322,-0.115 -2.027,-0.176 -1.412,-0.107 -2.935,-0.293 -4.54,-0.504 -1.606,-0.186 -3.286,-0.505 -5.02,-0.786 -1.727,-0.351 -3.511,-0.676 -5.298,-1.128 -1.797,-0.395 -3.592,-0.93 -5.387,-1.415 -1.779,-0.567 -3.562,-1.087 -5.278,-1.725 -1.731,-0.582 -3.392,-1.272 -5.005,-1.901 -1.591,-0.696 -3.139,-1.322 -4.562,-2.023 -1.431,-0.678 -2.775,-1.327 -3.986,-1.987 -0.609,-0.321 -1.192,-0.629 -1.746,-0.921 -0.543,-0.311 -1.059,-0.607 -1.544,-0.884 -0.971,-0.549 -1.81,-1.036 -2.482,-1.47 -1.355,-0.843 -2.129,-1.325 -2.129,-1.325 l -0.126,-0.078 c -2.289,-1.425 -5.302,-0.723 -6.726,1.565 -1.425,2.292 -0.723,5.302 1.567,6.727 0.187,0.117 0.404,0.229 0.6,0.318 0,0 0.914,0.405 2.514,1.114 0.792,0.366 1.775,0.766 2.906,1.213 0.564,0.224 1.162,0.464 1.795,0.716 0.639,0.232 1.311,0.474 2.013,0.728 1.396,0.522 2.932,1.017 4.557,1.523 1.618,0.531 3.36,0.971 5.141,1.467 1.803,0.429 3.649,0.905 5.556,1.263 1.889,0.414 3.838,0.7 5.767,1.028 1.947,0.245 3.881,0.534 5.801,0.684 1.91,0.208 3.802,0.286 5.62,0.395 1.827,0.041 3.584,0.125 5.254,0.085 1.667,-0.015 3.24,-0.042 4.69,-0.134 0.724,-0.039 1.417,-0.076 2.078,-0.11 0.661,-0.058 1.288,-0.111 1.877,-0.163 1.18,-0.095 2.198,-0.191 3.022,-0.307 C -0.883,1.33 0.066,1.21 0.066,1.21 0.399,1.169 0.635,0.867 0.594,0.533 0.557,0.228 0.299,0.004 0,0" /></g><g
           transform="translate(877.7671,265.4576)"
           id="g3495"><path
             id="path3497"
             style="fill:#231f20;fill-opacity:1;fill-rule:nonzero;stroke:none"
             d="M 0,0 C 0,0 -0.872,0.068 -2.4,0.185 -3.143,0.16 -4.02,0.2 -5.047,0.124 -5.56,0.078 -6.107,0.031 -6.683,-0.02 c -0.573,-0.064 -1.173,-0.184 -1.796,-0.279 -0.625,-0.081 -1.267,-0.258 -1.93,-0.407 -0.665,-0.138 -1.343,-0.335 -2.035,-0.551 -0.347,-0.104 -0.697,-0.209 -1.052,-0.316 -0.35,-0.126 -0.704,-0.255 -1.063,-0.384 -0.357,-0.13 -0.718,-0.259 -1.082,-0.391 -0.36,-0.15 -0.723,-0.301 -1.088,-0.454 -0.734,-0.292 -1.468,-0.624 -2.205,-0.98 -0.741,-0.333 -1.48,-0.713 -2.22,-1.099 -1.484,-0.761 -2.963,-1.608 -4.429,-2.483 -2.93,-1.754 -5.792,-3.665 -8.491,-5.499 -2.718,-1.84 -5.155,-3.54 -7.088,-5.073 -1.937,-1.531 -3.37,-2.886 -4.306,-3.864 -0.465,-0.49 -0.82,-0.877 -1.047,-1.149 -0.232,-0.268 -0.355,-0.412 -0.355,-0.412 l -0.04,-0.045 c -1.679,-1.943 -4.616,-2.158 -6.558,-0.48 -1.944,1.679 -2.157,4.615 -0.479,6.558 0.143,0.166 0.316,0.335 0.475,0.476 0,0 0.188,0.163 0.54,0.468 0.35,0.309 0.875,0.738 1.549,1.268 1.35,1.051 3.332,2.432 5.746,3.825 2.411,1.399 5.24,2.812 8.197,4.244 2.969,1.446 6.188,2.984 9.502,4.366 1.658,0.69 3.334,1.35 5.017,1.928 0.839,0.293 1.672,0.579 2.514,0.821 0.833,0.261 1.662,0.501 2.491,0.7 0.412,0.105 0.819,0.21 1.224,0.314 0.41,0.083 0.817,0.168 1.219,0.251 0.4,0.082 0.797,0.163 1.188,0.243 0.398,0.059 0.789,0.118 1.176,0.176 0.771,0.123 1.522,0.227 2.259,0.273 0.733,0.058 1.433,0.142 2.119,0.134 0.682,0.007 1.331,0.039 1.95,0.02 C -6.162,2.144 -5.576,2.111 -5.025,2.08 -3.924,2.003 -2.952,1.82 -2.169,1.727 -0.674,1.391 0.181,1.2 0.181,1.2 0.509,1.126 0.715,0.801 0.642,0.474 0.575,0.175 0.297,-0.023 0,0" /></g><g
           transform="translate(1033.4065,624.0489)"
           id="g3499"><path
             id="path3501"
             style="fill:#231f20;fill-opacity:1;fill-rule:nonzero;stroke:none"
             d="m 0,0 c 0,0 -0.108,-0.038 -0.307,-0.086 -0.19,-0.047 -0.471,-0.115 -0.826,-0.202 -0.706,-0.166 -1.672,-0.341 -2.825,-0.504 -1.152,-0.151 -2.494,-0.269 -3.976,-0.27 -1.486,0.008 -3.073,0.056 -4.658,0.143 -3.17,0.167 -6.338,0.512 -8.713,0.919 -1.187,0.195 -2.176,0.398 -2.867,0.552 -0.693,0.163 -1.089,0.273 -1.089,0.273 -0.241,0.067 -0.384,0.317 -0.317,0.559 0.045,0.164 0.175,0.283 0.329,0.321 0,0 0.397,0.1 1.093,0.247 0.696,0.137 1.689,0.316 2.881,0.484 2.383,0.35 5.559,0.619 8.732,0.712 1.587,0.048 3.172,0.058 4.661,0.031 1.491,-0.035 2.924,-0.214 4.147,-0.522 1.222,-0.31 2.225,-0.735 2.89,-1.115 C -0.505,1.345 -0.243,1.188 -0.084,1.06 0.082,0.941 0.168,0.865 0.168,0.865 0.379,0.678 0.399,0.355 0.213,0.143 0.153,0.077 0.078,0.028 0,0" /></g><g
           transform="translate(832.4316,299.5576)"
           id="g3503"><path
             id="path3505"
             style="fill:#231f20;fill-opacity:1;fill-rule:nonzero;stroke:none"
             d="m 0,0 c 0,0 -2.901,0.164 -7.979,0.453 -2.54,0.145 -5.622,0.32 -9.16,0.522 -3.554,0.208 -7.564,0.444 -11.938,0.701 -4.457,0.315 -9.3,0.726 -14.615,1.764 -0.612,0.128 -1.229,0.257 -1.849,0.386 -0.674,0.16 -1.352,0.319 -2.034,0.482 -1.333,0.342 -2.65,0.699 -3.98,1.114 -2.656,0.82 -5.321,1.797 -7.963,2.936 -5.284,2.28 -10.478,5.218 -15.315,8.79 l -1.846,1.406 -0.836,0.683 -0.955,0.832 c -1.201,1.092 -2.325,2.265 -3.365,3.579 -1.034,1.311 -1.982,2.755 -2.721,4.403 -0.736,1.638 -1.256,3.521 -1.258,5.525 0.025,0.501 0.02,1.002 0.095,1.499 0.091,0.494 0.156,0.998 0.294,1.477 l 0.229,0.712 0.118,0.354 0.061,0.177 c -0.031,-0.073 0.079,0.196 0.076,0.191 l 0.028,0.062 0.231,0.498 0.404,0.755 c 1.039,1.743 2.435,3.08 3.965,4.067 1.529,0.99 3.176,1.661 4.876,2.054 l 0.319,0.074 0.209,0.044 0.133,0.023 0.548,0.095 c 0.455,0.072 0.89,0.126 1.291,0.161 0.823,0.074 1.636,0.099 2.431,0.087 1.593,-0.027 3.118,-0.195 4.583,-0.409 0.746,-0.109 1.422,-0.22 2.186,-0.352 0.693,-0.129 1.384,-0.257 2.074,-0.385 0.689,-0.127 1.376,-0.256 2.061,-0.382 0.696,-0.146 1.388,-0.291 2.079,-0.436 1.383,-0.285 2.749,-0.577 4.086,-0.905 5.37,-1.256 10.495,-2.717 15.288,-4.285 4.791,-1.576 9.241,-3.281 13.294,-4.967 4.062,-1.67 7.687,-3.417 10.887,-4.975 3.179,-1.605 5.911,-3.073 8.135,-4.327 2.218,-1.265 3.946,-2.279 5.105,-3.004 1.167,-0.71 1.789,-1.09 1.789,-1.09 0.208,-0.125 0.274,-0.397 0.147,-0.604 -0.121,-0.2 -0.377,-0.269 -0.581,-0.16 l -0.011,0.004 c 0,0 -0.64,0.342 -1.84,0.979 -1.192,0.652 -2.967,1.558 -5.238,2.681 -2.275,1.114 -5.065,2.409 -8.298,3.81 -3.252,1.354 -6.927,2.867 -11.021,4.276 -4.087,1.426 -8.555,2.842 -13.338,4.112 -4.784,1.261 -9.877,2.394 -15.182,3.311 -1.326,0.244 -2.66,0.449 -4.001,0.644 -0.671,0.1 -1.344,0.202 -2.02,0.302 -0.692,0.086 -1.385,0.175 -2.08,0.261 -0.696,0.088 -1.393,0.175 -2.094,0.264 -0.671,0.068 -1.343,0.135 -2.018,0.204 -1.348,0.117 -2.668,0.178 -3.937,0.125 -2.548,-0.102 -4.836,-0.716 -6.581,-2.032 -0.869,-0.627 -1.539,-1.43 -1.939,-2.211 -0.029,-0.072 -0.063,-0.14 -0.101,-0.208 l -0.198,-0.503 -0.025,-0.063 c -0.02,-0.048 0.073,0.179 0.03,0.063 l -0.019,-0.084 -0.037,-0.167 -0.088,-0.33 c -0.053,-0.22 -0.046,-0.447 -0.086,-0.666 -0.024,-0.221 0.013,-0.452 0.003,-0.675 0.106,-1.815 1.275,-3.889 2.909,-5.702 0.814,-0.911 1.746,-1.779 2.724,-2.568 l 0.704,-0.548 0.873,-0.631 1.643,-1.101 c 4.554,-2.966 9.374,-5.328 14.207,-7.083 2.417,-0.879 4.838,-1.608 7.233,-2.195 1.193,-0.298 2.397,-0.547 3.562,-0.777 0.57,-0.1 1.138,-0.201 1.704,-0.301 0.625,-0.092 1.245,-0.184 1.862,-0.277 4.54,-0.612 9.146,-0.76 13.393,-0.804 4.337,0 8.312,-0.002 11.835,-0.002 3.544,0.007 6.632,0.012 9.175,0.017 5.085,0.008 7.993,0.014 7.993,0.014 3.25,0.004 5.89,-2.626 5.896,-5.877 C 6.227,2.635 3.596,-0.004 0.344,-0.009 0.235,-0.01 0.108,-0.006 0,0" /></g><g
           transform="translate(989.9724,545.7205)"
           id="g3507"><path
             id="path3509"
             style="fill:#231f20;fill-opacity:1;fill-rule:nonzero;stroke:none"
             d="m 0,0 c 0,0 0.372,-0.093 1.067,-0.266 0.711,-0.212 1.764,-0.528 3.011,-1.109 1.257,-0.571 2.735,-1.392 4.288,-2.544 1.561,-1.143 3.168,-2.644 4.721,-4.466 0.767,-0.931 1.501,-1.9 2.238,-3.023 0.657,-1.006 1.367,-2.242 1.977,-3.443 1.248,-2.443 2.278,-5.149 3.136,-7.989 0.849,-2.843 1.541,-5.82 2.072,-8.844 0.298,-1.454 0.517,-3.028 0.752,-4.594 0.243,-1.568 0.375,-3.118 0.566,-4.686 0.27,-3.133 0.478,-6.282 0.488,-9.391 0.006,-0.777 0.011,-1.552 0.016,-2.323 -0.021,-0.771 -0.041,-1.538 -0.062,-2.3 -0.018,-1.528 -0.138,-3.032 -0.226,-4.517 -0.081,-1.485 -0.266,-2.935 -0.392,-4.365 -0.158,-1.424 -0.363,-2.811 -0.538,-4.168 -0.225,-1.351 -0.444,-2.664 -0.657,-3.934 -0.258,-1.264 -0.506,-2.486 -0.746,-3.658 -0.54,-2.333 -1.057,-4.473 -1.609,-6.347 -0.499,-1.89 -1.07,-3.496 -1.482,-4.841 -0.443,-1.334 -0.838,-2.367 -1.086,-3.079 -0.255,-0.711 -0.391,-1.09 -0.391,-1.09 -1.007,-2.804 -4.095,-4.259 -6.898,-3.252 -2.804,1.005 -4.259,4.095 -3.253,6.898 0.061,0.168 0.129,0.332 0.204,0.49 l 0.075,0.157 c 0,0 0.157,0.327 0.449,0.942 0.286,0.618 0.738,1.51 1.259,2.672 0.491,1.174 1.162,2.576 1.784,4.243 0.674,1.648 1.339,3.544 2.051,5.625 0.328,1.051 0.668,2.144 1.022,3.278 0.313,1.145 0.636,2.33 0.969,3.55 0.284,1.231 0.606,2.491 0.884,3.793 0.247,1.305 0.56,2.633 0.772,4.001 0.219,1.365 0.476,2.755 0.636,4.173 0.091,0.709 0.183,1.423 0.276,2.14 0.068,0.719 0.136,1.443 0.204,2.169 0.286,2.908 0.388,5.879 0.435,8.859 -0.033,1.481 -0.008,2.992 -0.087,4.454 -0.07,1.465 -0.117,2.916 -0.272,4.438 -0.214,2.952 -0.584,5.816 -1.106,8.542 -0.53,2.722 -1.226,5.308 -2.142,7.658 -0.468,1.197 -0.924,2.237 -1.51,3.372 -0.523,1.004 -1.131,2.015 -1.739,2.921 -1.25,1.81 -2.591,3.347 -3.928,4.549 -1.329,1.212 -2.627,2.117 -3.748,2.77 -1.123,0.668 -2.062,1.054 -2.701,1.32 -0.676,0.243 -1.035,0.372 -1.035,0.372 -0.23,0.083 -0.349,0.335 -0.266,0.565 C -0.445,-0.063 -0.217,0.053 0,0" /></g><g
           transform="translate(894.6125,708.8661)"
           id="g3511"><path
             id="path3513"
             style="fill:#231f20;fill-opacity:1;fill-rule:nonzero;stroke:none"
             d="m 0,0 c 0,0 0.607,-1.428 1.669,-3.928 0.559,-1.234 1.092,-2.815 1.779,-4.59 0.705,-1.776 1.332,-3.819 2.098,-6.031 0.711,-2.225 1.47,-4.645 2.209,-7.216 0.367,-1.287 0.744,-2.609 1.129,-3.96 0.366,-1.355 0.74,-2.738 1.121,-4.146 1.508,-5.632 3.04,-11.648 4.699,-17.602 0.424,-1.485 0.848,-2.97 1.27,-4.448 0.452,-1.465 0.9,-2.926 1.346,-4.373 0.945,-2.874 1.869,-5.703 2.915,-8.371 0.498,-1.344 0.999,-2.661 1.558,-3.916 0.55,-1.259 1.039,-2.514 1.601,-3.692 0.569,-1.173 1.121,-2.315 1.656,-3.418 0.506,-1.119 1.143,-2.115 1.674,-3.117 0.557,-0.978 1.058,-1.969 1.591,-2.812 0.499,-0.789 1.028,-1.524 1.55,-2.154 1.038,-1.267 2.072,-2.104 2.88,-2.509 0.812,-0.422 1.377,-0.482 1.756,-0.476 0.381,0 0.584,0.058 0.584,0.043 1.56,0.22 3.001,-0.865 3.221,-2.424 0.22,-1.559 -0.865,-3.001 -2.424,-3.221 0,0 -0.142,-0.011 -0.418,-0.03 -0.278,-0.011 -0.685,-0.064 -1.222,-0.009 -1.065,0.044 -2.662,0.401 -4.211,1.339 -1.568,0.915 -3.03,2.333 -4.307,4.05 -0.642,0.86 -1.246,1.793 -1.829,2.827 -0.554,0.981 -1.01,2.008 -1.555,3.08 -0.507,1.08 -1.123,2.169 -1.599,3.362 -0.503,1.182 -1.022,2.402 -1.558,3.657 -0.524,1.257 -0.97,2.58 -1.476,3.914 -0.516,1.331 -0.966,2.713 -1.411,4.121 -0.944,2.801 -1.747,5.735 -2.568,8.709 -0.38,1.492 -0.764,2.996 -1.149,4.505 -0.354,1.515 -0.71,3.034 -1.065,4.554 -1.379,6.081 -2.618,12.166 -3.846,17.844 -0.312,1.419 -0.618,2.813 -0.916,4.178 -0.318,1.36 -0.628,2.69 -0.93,3.984 -0.609,2.588 -1.245,5.018 -1.842,7.258 -0.65,2.222 -1.177,4.29 -1.783,6.064 -0.594,1.783 -1.037,3.356 -1.54,4.623 -0.939,2.55 -1.476,4.005 -1.476,4.005 -0.084,0.229 0.033,0.482 0.262,0.566 C -0.337,0.323 -0.091,0.214 0,0" /></g><g
           transform="translate(867.9285,731.6497)"
           id="g3515"><path
             id="path3517"
             style="fill:#231f20;fill-opacity:1;fill-rule:nonzero;stroke:none"
             d="m 0,0 c 0,0 0.729,-1.188 1.822,-2.97 1.089,-1.789 2.517,-4.188 3.908,-6.601 2.794,-4.826 5.398,-9.734 5.398,-9.734 l 0.003,-0.004 c 0.689,-1.3 0.195,-2.912 -1.105,-3.602 -1.129,-0.599 -2.496,-0.303 -3.287,0.638 0,0 -3.522,4.184 -7.183,8.223 -1.826,2.021 -3.678,4.015 -5.08,5.496 -1.411,1.478 -2.352,2.464 -2.352,2.464 l -0.013,0.015 c -1.91,2 -1.836,5.17 0.165,7.079 2,1.909 5.17,1.834 7.079,-0.166 C -0.403,0.583 -0.178,0.287 0,0" /></g><g
           transform="translate(875.9109,735.5338)"
           id="g3519"><path
             id="path3521"
             style="fill:#231f20;fill-opacity:1;fill-rule:nonzero;stroke:none"
             d="m 0,0 c 0,0 0.22,-0.276 0.583,-0.775 0.184,-0.238 0.404,-0.56 0.656,-0.942 0.25,-0.38 0.547,-0.796 0.822,-1.266 0.281,-0.471 0.586,-0.98 0.907,-1.519 0.322,-0.54 0.624,-1.13 0.95,-1.732 0.625,-1.219 1.257,-2.538 1.824,-3.885 1.143,-2.692 2.047,-5.477 2.617,-7.589 0.283,-1.058 0.493,-1.945 0.638,-2.565 0.153,-0.28 -0.229,-0.689 -0.669,-1.032 -0.229,-0.175 -0.497,-0.343 -0.633,-0.44 -0.199,-0.119 -0.301,-0.18 -0.301,-0.18 -0.225,-0.136 -0.464,-0.224 -0.708,-0.267 l -0.015,-0.001 c 0,0 -0.117,-0.021 -0.346,-0.061 -0.166,-0.017 -0.48,-0.066 -0.767,-0.087 -0.556,-0.034 -1.111,0.008 -1.175,0.304 -0.294,0.529 -0.72,1.283 -1.247,2.174 -1.027,1.794 -2.433,4.146 -3.838,6.472 -1.402,2.318 -2.804,4.637 -3.855,6.377 -0.27,0.433 -0.485,0.836 -0.693,1.182 -0.208,0.359 -0.388,0.672 -0.538,0.93 -0.305,0.535 -0.467,0.849 -0.467,0.849 -0.946,1.839 -0.221,4.097 1.619,5.043 C -3.024,1.819 -1.091,1.363 0,0" /></g><g
           transform="translate(886.429,763.6273)"
           id="g3523"><path
             id="path3525"
             style="fill:#231f20;fill-opacity:1;fill-rule:nonzero;stroke:none"
             d="m 0,0 c 0,0 0.103,-2.66 0.259,-6.649 0.176,-3.982 0.486,-9.293 0.895,-14.604 0.41,-5.31 0.921,-10.621 1.359,-14.601 0.461,-3.979 0.768,-6.632 0.768,-6.632 l 0.003,-0.031 c 0.127,-1.093 -0.656,-2.082 -1.749,-2.209 -0.997,-0.115 -1.907,0.527 -2.156,1.47 0,0 -0.691,2.606 -1.726,6.514 -1.015,3.917 -2.298,9.162 -3.481,14.437 -1.185,5.275 -2.271,10.58 -3.031,14.573 -0.737,3.989 -1.229,6.649 -1.229,6.649 -0.511,2.763 1.315,5.416 4.078,5.927 2.763,0.511 5.417,-1.314 5.927,-4.077 0.043,-0.234 0.07,-0.467 0.08,-0.698 L 0,0 Z" /></g><g
           transform="translate(834.9515,746.9959)"
           id="g3527"><path
             id="path3529"
             style="fill:#231f20;fill-opacity:1;fill-rule:nonzero;stroke:none"
             d="m 0,0 c 0,0 2.137,-2.191 5.342,-5.478 1.603,-1.644 3.471,-3.561 5.475,-5.616 2.001,-2.051 4.103,-4.204 6.26,-6.24 1.079,-1.018 2.171,-2.006 3.269,-2.938 0.55,-0.466 1.1,-0.92 1.65,-1.358 0.275,-0.214 0.547,-0.427 0.817,-0.638 0.288,-0.216 0.573,-0.43 0.855,-0.643 1.088,-0.81 2.234,-1.619 3.308,-2.392 1.083,-0.778 2.118,-1.54 3.064,-2.286 0.945,-0.75 1.806,-1.464 2.54,-2.153 0.741,-0.677 1.354,-1.321 1.852,-1.857 0.484,-0.554 0.861,-0.991 1.1,-1.31 0.243,-0.311 0.373,-0.478 0.373,-0.478 0.736,-0.94 0.571,-2.3 -0.37,-3.036 -0.878,-0.688 -2.123,-0.588 -2.883,0.195 l -0.099,0.102 c 0,0 -0.12,0.125 -0.342,0.356 -0.215,0.237 -0.563,0.563 -1.001,0.976 -0.457,0.402 -1.015,0.883 -1.706,1.399 -0.68,0.523 -1.501,1.075 -2.417,1.665 -0.917,0.588 -1.951,1.201 -3.076,1.851 -1.129,0.654 -2.324,1.33 -3.621,2.109 -0.31,0.189 -0.623,0.379 -0.94,0.571 -0.325,0.206 -0.654,0.413 -0.983,0.622 -0.651,0.418 -1.3,0.855 -1.947,1.3 -1.293,0.894 -2.57,1.838 -3.819,2.803 -2.498,1.928 -4.882,3.933 -7.082,5.781 -2.197,1.847 -4.248,3.57 -6.004,5.048 -3.515,2.955 -5.858,4.924 -5.858,4.924 -1.942,1.632 -2.192,4.528 -0.56,6.47 1.632,1.942 4.529,2.192 6.47,0.561 C -0.217,0.212 -0.103,0.106 0,0" /></g><g
           transform="translate(892.2626,711.662)"
           id="g3531"><path
             id="path3533"
             style="fill:#231f20;fill-opacity:1;fill-rule:nonzero;stroke:none"
             d="M 0,0 C -0.019,0.01 0.077,-0.034 0.059,-0.014 0.024,0.004 0.043,0.001 0.071,0.024 0.107,0.048 0.188,0.109 0.278,0.221 0.32,0.272 0.376,0.35 0.409,0.409 0.467,0.506 0.53,0.609 0.597,0.717 0.879,1.161 1.12,1.646 1.414,2.27 c 0.27,0.619 0.54,1.329 0.759,2.12 0.435,1.581 0.654,3.497 0.42,5.463 -0.064,0.49 -0.149,0.984 -0.26,1.469 C 2.223,11.793 2.077,11.98 1.99,11.994 1.884,12.045 1.68,12.118 1.415,12.127 1.285,12.133 1.145,12.119 1.018,12.09 L 0.971,12.078 0.96,12.076 c -0.094,-0.01 0.12,0.012 0.093,0.009 L 1.039,12.082 0.986,12.071 0.773,12.024 C 0.59,11.995 0.57,11.96 0.533,11.937 0.034,11.719 -0.604,11.186 -1.142,10.475 -1.698,9.766 -2.202,8.893 -2.71,7.982 -3.779,6.087 -4.68,4.385 -5.284,2.939 -5.896,1.496 -6.207,0.328 -6.362,-0.47 -6.434,-0.869 -6.485,-1.178 -6.503,-1.388 -6.527,-1.596 -6.54,-1.708 -6.54,-1.708 L -6.543,-1.74 c -0.227,-1.959 -1.998,-3.363 -3.958,-3.138 -1.959,0.228 -3.365,1.999 -3.138,3.958 0.023,0.201 0.068,0.414 0.122,0.602 0,0 0.05,0.171 0.145,0.493 0.091,0.323 0.248,0.784 0.463,1.357 0.435,1.141 1.172,2.688 2.213,4.308 1.033,1.624 2.352,3.324 3.727,5.022 0.714,0.883 1.501,1.861 2.533,2.795 1.037,0.919 2.323,1.844 4.095,2.181 0.245,0.045 0.506,0.084 0.613,0.079 l 0.217,0.009 0.054,0.003 0.135,0.011 0.042,0.001 0.169,-0.001 c 0.453,-0.011 0.894,-0.073 1.327,-0.195 0.857,-0.241 1.73,-0.718 2.372,-1.534 0.09,-0.117 0.201,-0.277 0.256,-0.371 L 4.997,13.555 C 5.108,13.329 5.19,13.102 5.25,12.89 5.369,12.462 5.41,12.088 5.434,11.757 5.469,11.132 5.47,10.525 5.445,9.929 5.322,7.541 4.69,5.416 3.911,3.744 3.52,2.908 3.092,2.18 2.685,1.56 2.273,0.961 1.854,0.403 1.523,0.039 1.44,-0.057 1.361,-0.148 1.287,-0.233 1.184,-0.355 1.098,-0.435 1,-0.521 0.807,-0.684 0.601,-0.81 0.38,-0.875 0.15,-0.94 -0.05,-0.926 -0.217,-0.869 -0.372,-0.81 -0.336,-0.81 -0.357,-0.805 -0.58,-0.706 -0.68,-0.447 -0.581,-0.223 -0.482,-0.001 -0.222,0.099 0,0" /></g><g
           transform="translate(880.3218,704.4869)"
           id="g3535"><path
             id="path3537"
             style="fill:#231f20;fill-opacity:1;fill-rule:nonzero;stroke:none"
             d="m 0,0 c 0,0 5.681,-0.474 6.628,1.893 0.947,2.367 1.42,5.208 1.42,5.208 l 3.787,-3.078 6.153,-15.858 -4.022,4.024 0.473,-11.361 -3.078,11.125 -0.473,-8.758 -4.26,6.628 0.947,-8.522 L 0,0 Z" /></g><g
           transform="translate(1004.2202,657.45)"
           id="g3539"><path
             id="path3541"
             style="fill:#231f20;fill-opacity:1;fill-rule:nonzero;stroke:none"
             d="m 0,0 c 0.237,-1.233 -2.177,-2.733 -5.392,-3.35 -3.214,-0.616 -6.012,-0.116 -6.249,1.118 -0.236,1.233 2.178,2.733 5.393,3.35 C -3.034,1.734 -0.237,1.234 0,0" /></g></g></g></g></svg>