<?xml version="1.0" encoding="UTF-8" standalone="no"?>
<!-- Generator: Adobe Illustrator 19.2.1, SVG Export Plug-In . SVG Version: 6.00 Build 0)  -->

<svg
   xmlns:dc="http://purl.org/dc/elements/1.1/"
   xmlns:cc="http://creativecommons.org/ns#"
   xmlns:rdf="http://www.w3.org/1999/02/22-rdf-syntax-ns#"
   xmlns:svg="http://www.w3.org/2000/svg"
   xmlns="http://www.w3.org/2000/svg"
   xmlns:sodipodi="http://sodipodi.sourceforge.net/DTD/sodipodi-0.dtd"
   xmlns:inkscape="http://www.inkscape.org/namespaces/inkscape"
   version="1.1"
   id="Layer_1"
   x="0px"
   y="0px"
   viewBox="0 0 1920 460"
   xml:space="preserve"
   inkscape:version="0.91 r13725"
   sodipodi:docname="monax_rect.svg"
   width="1920"
   height="460"><metadata
     id="metadata3458"><rdf:RDF><cc:Work
         rdf:about=""><dc:format>image/svg+xml</dc:format><dc:type
           rdf:resource="http://purl.org/dc/dcmitype/StillImage" /><dc:title></dc:title></cc:Work></rdf:RDF></metadata><defs
     id="defs3456" /><sodipodi:namedview
     pagecolor="#ffffff"
     bordercolor="#666666"
     borderopacity="1"
     objecttolerance="10"
     gridtolerance="10"
     guidetolerance="10"
     inkscape:pageopacity="0"
     inkscape:pageshadow="2"
     inkscape:window-width="2560"
     inkscape:window-height="1440"
     id="namedview3454"
     showgrid="false"
     inkscape:zoom="1.1574074"
     inkscape:cx="960"
     inkscape:cy="332.64"
     inkscape:window-x="0"
     inkscape:window-y="0"
     inkscape:window-maximized="1"
     inkscape:current-layer="Layer_1" /><style
     type="text/css"
     id="style3418">
	.st0{fill:#231F20;stroke:#231F20;stroke-miterlimit:10;}
	.st1{fill:#231F20;}
	.st2{fill:#96B85C;}
</style><g
     id="g3442"
     transform="matrix(1.1281784,0,0,1.1281784,-121.69745,-329.35085)"><polygon
       class="st1"
       points="446.9,660.7 446.9,330.9 432.8,330.9 296.3,488 159.9,330.9 145.8,330.9 145.8,660.7 161.9,660.7 161.9,359.9 296.3,513.7 430.8,359.9 430.8,660.7 "
       id="polygon3444"
       style="fill:#231f20" /><polygon
       class="st1"
       points="1133.8,661.8 1133.8,332.1 1117.7,332.1 1117.7,632.8 893,332.1 878.4,332.1 878.4,661.8 894.5,661.8 894.5,361.1 1119.2,661.8 "
       id="polygon3446"
       style="fill:#231f20" /><polygon
       class="st1"
       points="1752.4,660.7 1771.8,660.7 1646.5,495.7 1771.8,330.9 1752.4,330.9 1636.4,483.5 1520.4,330.9 1501,330.9 1626.2,495.7 1501,660.7 1520.4,660.7 1636.4,507.8 "
       id="polygon3448"
       style="fill:#231f20" /><polygon
       class="st2"
       points="1318.9,329.8 1179.5,659.5 1197.1,659.5 1325.6,354.9 1454,659.5 1471.6,659.5 1333,331.6 1332.2,329.8 "
       id="polygon3450"
       style="fill:#96b85c" /><path
       class="st1"
       d="m 663.1,331 c -91.1,0 -165.2,74.1 -165.2,165.2 0,91.1 74.1,165.3 165.2,165.3 91.1,0 165.2,-74.1 165.2,-165.2 C 828.3,405.2 754.2,331 663.1,331 Z m 0,313.9 c -82,0 -148.6,-66.7 -148.6,-148.6 0,-82 66.7,-148.6 148.6,-148.6 81.9,0 148.6,66.7 148.6,148.6 0,81.9 -66.7,148.6 -148.6,148.6 z"
       id="path3452"
       inkscape:connector-curvature="0"
       style="fill:#231f20" /></g></svg>