<?xml version="1.0" encoding="utf-8"?>
<!-- Generator: Adobe Illustrator 19.2.1, SVG Export Plug-In . SVG Version: 6.00 Build 0)  -->
<svg version="1.1" id="Layer_1" xmlns="http://www.w3.org/2000/svg" xmlns:xlink="http://www.w3.org/1999/xlink" x="0px" y="0px"
	 viewBox="0 0 1920 1080" style="enable-background:new 0 0 1920 1080;" xml:space="preserve">
<style type="text/css">
	.st0{fill:#231F20;stroke:#231F20;stroke-miterlimit:10;}
	.st1{fill:#231F20;}
	.st2{fill:#96B85C;}
</style>
<g>
	<path class="st0" d="M151.8,775.1h-4.4V717h4.4V775.1z"/>
	<path class="st0" d="M342.6,775.1h-4.4l-33.5-50.5v50.5h-4.4V717h4.4l33.5,50.3V717h4.4V775.1z"/>
	<path class="st0" d="M530.8,745.2v1.9c0,5.1-0.4,9.6-1.1,13.4c-0.7,3.8-2.2,6.9-4.6,9.3c-1.1,1.1-2.5,2.1-3.9,2.9
		c-1.5,0.8-3.1,1.4-4.9,1.8c-1.8,0.4-3.7,0.6-5.7,0.6h-19.5V717h19.5c2,0,3.9,0.2,5.7,0.6c1.8,0.4,3.4,1,4.9,1.8
		c1.5,0.8,2.8,1.7,4,2.9c2.4,2.4,3.9,5.3,4.6,8.7c0.7,3.4,1,7.6,1,12.4V745.2z M526.4,745.2v-2.4c0-4.1-0.3-7.5-0.8-10.4
		c-0.5-2.8-1.7-5.2-3.5-7c-2.9-3-7.1-4.5-12.5-4.5h-14v50.3h14c5.4,0,9.6-1.5,12.5-4.5c1.8-1.8,3-4.3,3.5-7.5
		c0.5-3.2,0.8-7,0.8-11.4V745.2z"/>
	<path class="st0" d="M716,756.3c0,3.7-0.8,7.1-2.5,10s-4,5.2-7.1,6.9c-3,1.6-6.5,2.5-10.3,2.5c-3.8,0-7.3-0.8-10.3-2.5
		s-5.4-3.9-7.1-6.9c-1.7-2.9-2.5-6.3-2.5-10V717h4.4v38.7c0,3.2,0.6,6,1.9,8.4c1.3,2.4,3.1,4.3,5.5,5.6c2.4,1.3,5.1,2,8.1,2
		c3,0,5.7-0.7,8.1-2c2.4-1.3,4.2-3.2,5.5-5.6c1.3-2.4,1.9-5.2,1.9-8.4V717h4.4V756.3z"/>
	<path class="st0" d="M897.8,759.5c0,2.4-0.4,4.6-1.3,6.6c-0.9,2-2.2,3.7-3.9,5.1c-1.7,1.4-3.8,2.5-6.2,3.2
		c-2.5,0.8-5.2,1.1-8.1,1.1c-2.8,0-5.3-0.3-7.6-0.8c-2.3-0.5-4.4-1.4-6.3-2.5c-1.9-1.1-3.7-2.6-5.5-4.3l3.1-3.1
		c1.8,1.8,3.4,3.1,5.1,4.1c1.6,1,3.4,1.7,5.2,2.1c1.9,0.4,3.9,0.6,6.2,0.6c3.1,0,5.7-0.5,7.9-1.4c2.2-0.9,4-2.3,5.2-4.1
		c1.2-1.8,1.8-4,1.8-6.4c0-3.6-1.1-6.3-3.2-8.2c-1-0.8-2.1-1.5-3.3-1.9c-1.2-0.4-2.9-0.8-5.1-1.2l-6.8-1c-4.4-0.7-7.9-2.1-10.3-4.3
		c-3.1-2.5-4.6-6.1-4.6-10.7c0-2.4,0.4-4.7,1.3-6.6c0.9-2,2.1-3.7,3.6-5c1.5-1.4,3.4-2.4,5.7-3.1c2.3-0.7,4.7-1.1,7.4-1.1
		c3.5,0,6.6,0.5,9.1,1.5c2.5,1,5.1,2.6,7.6,4.8l-2.9,2.9c-2-1.8-4.1-3.2-6.2-4.1c-2.1-0.9-4.7-1.3-7.9-1.3c-4.2,0-7.5,1.1-9.9,3.2
		c-2.4,2.2-3.6,5.1-3.6,8.8c0,3.4,1,5.9,3,7.6c1.1,0.9,2.4,1.6,4,2.3c1.6,0.7,3.1,1.1,4.7,1.3l6.2,1c2.7,0.4,4.8,0.9,6.3,1.4
		c1.5,0.6,2.9,1.4,4.1,2.4c1.6,1.4,2.9,3,3.8,4.9C897.4,755.1,897.8,757.2,897.8,759.5z"/>
	<path class="st0" d="M1074.7,720.9h-17.4v54.2h-4.4v-54.2h-17.3V717h39.1V720.9z"/>
	<path class="st0" d="M1256.1,775.1h-5.1l-13.9-26.8h-16v26.8h-4.4V717h22.1c3.2,0,6.1,0.6,8.6,1.8c2.5,1.2,4.5,3,5.9,5.3
		c1.4,2.3,2.2,5.2,2.2,8.4c0,4.2-1.2,7.7-3.6,10.5c-2.4,2.7-5.7,4.5-9.8,5.2L1256.1,775.1z M1251,732.7c0-3.9-1.2-6.8-3.5-8.8
		c-2.3-2-5.4-3-9.3-3h-17.1v23.5h17.1c1.9,0,3.6-0.2,5.2-0.7c1.6-0.5,2.9-1.2,4-2.2c1.1-1,2-2.2,2.6-3.7
		C1250.7,736.4,1251,734.6,1251,732.7z"/>
	<path class="st0" d="M1405.3,775.1h-4.4V717h4.4V775.1z"/>
	<path class="st0" d="M1589,775.1h-35.3V717h35.3v3.9h-30.8v22.9h26.3v3.9h-26.3v23.4h30.8V775.1z"/>
	<path class="st0" d="M1767.2,759.5c0,2.4-0.4,4.6-1.3,6.6c-0.9,2-2.2,3.7-3.9,5.1c-1.7,1.4-3.8,2.5-6.2,3.2
		c-2.5,0.8-5.2,1.1-8.1,1.1c-2.8,0-5.3-0.3-7.6-0.8c-2.3-0.5-4.4-1.4-6.3-2.5c-1.9-1.1-3.7-2.6-5.5-4.3l3.1-3.1
		c1.8,1.8,3.4,3.1,5.1,4.1c1.6,1,3.4,1.7,5.2,2.1c1.9,0.4,3.9,0.6,6.2,0.6c3.1,0,5.7-0.5,7.9-1.4c2.2-0.9,4-2.3,5.2-4.1
		c1.2-1.8,1.8-4,1.8-6.4c0-3.6-1.1-6.3-3.2-8.2c-1-0.8-2.1-1.5-3.3-1.9c-1.2-0.4-2.9-0.8-5.1-1.2l-6.8-1c-4.4-0.7-7.9-2.1-10.3-4.3
		c-3.1-2.5-4.6-6.1-4.6-10.7c0-2.4,0.4-4.7,1.3-6.6c0.9-2,2.1-3.7,3.6-5c1.5-1.4,3.4-2.4,5.7-3.1s4.7-1.1,7.4-1.1
		c3.5,0,6.6,0.5,9.1,1.5c2.5,1,5.1,2.6,7.6,4.8l-2.9,2.9c-2-1.8-4.1-3.2-6.2-4.1c-2.1-0.9-4.7-1.3-7.9-1.3c-4.2,0-7.5,1.1-9.9,3.2
		c-2.4,2.2-3.6,5.1-3.6,8.8c0,3.4,1,5.9,3,7.6c1.1,0.9,2.4,1.6,4,2.3c1.6,0.7,3.1,1.1,4.7,1.3l6.2,1c2.7,0.4,4.8,0.9,6.3,1.4
		c1.5,0.6,2.9,1.4,4.1,2.4c1.6,1.4,2.9,3,3.8,4.9C1766.8,755.1,1767.2,757.2,1767.2,759.5z"/>
</g>
<g>
	<polygon class="st1" points="296.3,488 159.9,330.9 145.8,330.9 145.8,660.7 161.9,660.7 161.9,359.9 296.3,513.7 430.8,359.9 
		430.8,660.7 446.9,660.7 446.9,330.9 432.8,330.9 	"/>
	<polygon class="st1" points="1117.7,632.8 893,332.1 878.4,332.1 878.4,661.8 894.5,661.8 894.5,361.1 1119.2,661.8 1133.8,661.8 
		1133.8,332.1 1117.7,332.1 	"/>
	<polygon class="st1" points="1771.8,330.9 1752.4,330.9 1636.4,483.5 1520.4,330.9 1501,330.9 1626.2,495.7 1501,660.7 
		1520.4,660.7 1636.4,507.8 1752.4,660.7 1771.8,660.7 1646.5,495.7 	"/>
	<polygon class="st2" points="1332.2,329.8 1318.9,329.8 1179.5,659.5 1197.1,659.5 1325.6,354.9 1454,659.5 1471.6,659.5 
		1333,331.6 	"/>
	<path class="st1" d="M663.1,331c-91.1,0-165.2,74.1-165.2,165.2S572,661.5,663.1,661.5s165.2-74.1,165.2-165.2S754.2,331,663.1,331
		z M663.1,644.9c-82,0-148.6-66.7-148.6-148.6c0-82,66.7-148.6,148.6-148.6s148.6,66.7,148.6,148.6
		C811.7,578.2,745,644.9,663.1,644.9z"/>
</g>
</svg>
