<?xml version="1.0" encoding="utf-8"?>
<!-- Generator: Adobe Illustrator 18.1.1, SVG Export Plug-In . SVG Version: 6.00 Build 0)  -->
<!DOCTYPE svg PUBLIC "-//W3C//DTD SVG 1.1//EN" "http://www.w3.org/Graphics/SVG/1.1/DTD/svg11.dtd">
<svg version="1.1" id="Layer_1" xmlns="http://www.w3.org/2000/svg" xmlns:xlink="http://www.w3.org/1999/xlink" x="0px" y="0px"
	 viewBox="0 0 1920 1080" enable-background="new 0 0 1920 1080" xml:space="preserve">
<g>
	<path fill="#9EADBB" d="M1049.3,622.3l11.4,9l-20.8,12.3c0,0-7.7,7.3-22,0c-14.3-7.3-46-26-46-26l-5.3,3.3l-20.3-17l-59-33
		c0,0-16.3-8.7-11.7-12.3c4.7-3.7,36.3-19.5,36.3-19.5L1049.3,622.3z"/>
	<g>
		<g>
			<path fill="#283370" d="M870.2,438.6l9.2-3.9c0,0,7.3-5,18.3,1.3s108.8,60.7,108.8,60.7s22.5,13.3,22.5,36c0,29.7,0,49.3,0,49.3
				s1.4,10.3-8.7,17.3c-10,7.1-12.4,7.9-12.4,7.9l-15.3-85.9L870.2,438.6z"/>
			<polygon fill="#283370" points="961,612.7 975,604 975,580 955,580 			"/>
		</g>
		<path fill="#2F3C80" d="M860,453v49c0,0-2,24.3,34.3,45.7c36.3,21.3,40,22.7,40,22.7l26.7,42.3V586l33.8,21c0,0,21.2,10.3,21.2-21
			s0-43,0-43s1-23.7-19.3-35C976.3,496.7,872,438,872,438S861.3,440.2,860,453z"/>
	</g>
</g>
</svg>
