<?xml version="1.0" encoding="utf-8"?>
<!-- Generator: Adobe Illustrator 16.0.0, SVG Export Plug-In . SVG Version: 6.00 Build 0)  -->
<!DOCTYPE svg PUBLIC "-//W3C//DTD SVG 1.1//EN" "http://www.w3.org/Graphics/SVG/1.1/DTD/svg11.dtd">
<svg version="1.1" id="Layer_1" xmlns="http://www.w3.org/2000/svg" xmlns:xlink="http://www.w3.org/1999/xlink" x="0px" y="0px"
	 width="140px" height="182px" viewBox="-10 -48 140 182" enable-background="new -10 -48 140 182" xml:space="preserve">
<g>
	<g>
		<g>
			<path fill="#4D93C4" d="M60,133.666c-0.261,0-0.521-0.071-0.787-0.266l-3.205-2.289l1.508-2.157l1.175,0.849V128.3h2.617v4.059
				c0,0.46-0.261,0.909-0.721,1.175C60.394,133.595,60.194,133.666,60,133.666z"/>
			<path fill="#4D93C4" d="M61.309,125.029h-2.617v-7.196h2.617V125.029z M61.309,114.562h-2.617v-7.196h2.617V114.562z
				 M61.309,104.095h-2.617v-7.196h2.617V104.095z M61.309,93.627h-2.617v-7.196h2.617V93.627z M61.309,83.16h-2.617v-7.196h2.617
				V83.16z M61.309,72.692h-2.617v-7.196h2.617V72.692z M61.309,62.226h-2.617v-7.196h2.617V62.226z"/>
			<path fill="#4D93C4" d="M61.309,52.412h-2.617v-3.465l-2.617-1.702l1.441-2.224l3.205,2.091c0.394,0.261,0.588,0.654,0.588,1.114
				V52.412z"/>
			<path fill="#4D93C4" d="M53.524,45.349l-6.021-4.125l1.508-2.157l6.016,4.12L53.524,45.349z M44.953,39.461l-6.021-4.125
				l1.508-2.157l6.016,4.119L44.953,39.461z M36.449,33.634l-6.021-4.119l1.508-2.157l6.016,4.12L36.449,33.634z M27.944,27.747
				l-6.021-4.12l1.507-2.157l6.016,4.12L27.944,27.747z M19.373,21.859l-6.016-4.12l1.502-2.157l6.021,4.119L19.373,21.859z
				 M10.868,15.971l-6.016-4.119l1.502-2.157l6.021,4.12L10.868,15.971z M2.297,10.083l-6.016-4.12l1.503-2.157l6.021,4.12
				L2.297,10.083z"/>
			<path fill="#4D93C4" d="M-7.383,4.655H-10V0.924c0-0.455,0.261-0.915,0.654-1.176c0.394-0.194,0.915-0.194,1.308,0.066
				l3.205,2.09l-1.436,2.162l-1.114-0.721V4.655z"/>
			<path fill="#4D93C4" d="M-7.383,77.926H-10v-7.196h2.617V77.926z M-7.383,67.459H-10v-7.196h2.617V67.459z M-7.383,56.991H-10
				v-7.196h2.617V56.991z M-7.383,46.524H-10v-7.196h2.617V46.524z M-7.383,36.057H-10v-7.196h2.617V36.057z M-7.383,25.59H-10
				v-7.196h2.617V25.59z M-7.383,15.123H-10V7.926h2.617V15.123z"/>
			<path fill="#4D93C4" d="M-6.208,87.934l-3.205-2.157C-9.806,85.511-10,85.122-10,84.662v-4.119h2.617v3.465l2.617,1.769
				L-6.208,87.934z"/>
			<path fill="#4D93C4" d="M53.524,129.414l-6.021-4.19l1.508-2.157l6.016,4.191L53.524,129.414z M45.02,123.526l-6.021-4.191
				l1.508-2.156l6.016,4.19L45.02,123.526z M36.449,117.567l-6.021-4.182l1.508-2.156l6.016,4.181L36.449,117.567z M27.944,111.679
				l-6.021-4.181l1.507-2.156l6.016,4.181L27.944,111.679z M19.373,105.729l-6.016-4.19l1.502-2.157l6.021,4.191L19.373,105.729z
				 M10.868,99.842l-6.016-4.19l1.502-2.157l6.021,4.191L10.868,99.842z M2.297,93.893l-6.016-4.19l1.503-2.157l6.021,4.181
				L2.297,93.893z"/>
		</g>
		<g>
			<path fill="none" d="M-8.691,0.924"/>
		</g>
		<g>
			<path fill="none" d="M128.691,0.924"/>
		</g>
		<g>
			<path fill="#4D93C4" d="M60,133.666c-0.194,0-0.394-0.071-0.588-0.133c-0.46-0.193-0.721-0.653-0.721-1.175V128.3h2.617v1.503
				l1.176-0.849l1.507,2.157l-3.204,2.289C60.521,133.533,60.261,133.666,60,133.666z"/>
			<path fill="#4D93C4" d="M61.309,125.029h-2.617v-7.196h2.617V125.029z M61.309,114.562h-2.617v-7.196h2.617V114.562z
				 M61.309,104.095h-2.617v-7.196h2.617V104.095z M61.309,93.627h-2.617v-7.196h2.617V93.627z M61.309,83.16h-2.617v-7.196h2.617
				V83.16z M61.309,72.692h-2.617v-7.196h2.617V72.692z M61.309,62.226h-2.617v-7.196h2.617V62.226z"/>
			<path fill="#4D93C4" d="M61.309,52.412h-2.617v-4.186c0-0.46,0.194-0.854,0.588-1.114l3.205-2.091l1.44,2.224l-2.616,1.702
				V52.412z"/>
			<path fill="#4D93C4" d="M66.48,45.349l-1.508-2.162l6.016-4.12l1.503,2.157L66.48,45.349z M75.047,39.461l-1.503-2.162
				l6.021-4.119l1.503,2.157L75.047,39.461z M83.552,33.634l-1.503-2.157l6.021-4.12l1.503,2.157L83.552,33.634z M92.056,27.747
				l-1.502-2.157l6.021-4.12l1.503,2.157L92.056,27.747z M100.622,21.859l-1.503-2.157l6.021-4.119l1.502,2.157L100.622,21.859z
				 M109.127,15.971l-1.503-2.157l6.021-4.12l1.503,2.157L109.127,15.971z M117.703,10.083L116.2,7.926l6.011-4.12l1.513,2.157
				L117.703,10.083z"/>
			<path fill="#4D93C4" d="M130,4.655h-2.617V3.347l-1.175,0.787l-1.441-2.162l3.209-2.09c0.389-0.266,0.91-0.266,1.309-0.066
				c0.389,0.194,0.654,0.654,0.654,1.176v3.665H130z"/>
			<path fill="#4D93C4" d="M130,77.926h-2.617v-7.196H130V77.926z M130,67.459h-2.617v-7.196H130V67.459z M130,56.991h-2.617v-7.196
				H130V56.991z M130,46.524h-2.617v-7.196H130V46.524z M130,36.057h-2.617v-7.196H130V36.057z M130,25.59h-2.617v-7.196H130V25.59z
				 M130,15.123h-2.617V7.926H130V15.123z"/>
			<path fill="#4D93C4" d="M126.208,87.934l-1.441-2.157l2.616-1.769v-3.465H130v4.119c0,0.46-0.194,0.849-0.593,1.114
				L126.208,87.934z"/>
			<path fill="#4D93C4" d="M66.48,129.414l-1.508-2.156l6.016-4.191l1.503,2.157L66.48,129.414z M74.985,123.526l-1.513-2.157
				l6.021-4.19l1.503,2.156L74.985,123.526z M83.552,117.567l-1.503-2.157l6.021-4.181l1.503,2.156L83.552,117.567z M92.056,111.679
				l-1.502-2.156l6.021-4.181l1.503,2.156L92.056,111.679z M100.622,105.729l-1.503-2.156l6.021-4.191l1.502,2.157L100.622,105.729z
				 M109.127,99.842l-1.503-2.156l6.021-4.191l1.503,2.157L109.127,99.842z M117.703,93.893l-1.503-2.167l6.011-4.181l1.513,2.157
				L117.703,93.893z"/>
		</g>
	</g>
	<g>
		<g>
			<path fill="#4D93C4" d="M61.309-42.448h-2.617v-1.441l-1.175,0.787l-1.508-2.157l3.205-2.229c0.394-0.26,0.92-0.327,1.375-0.061
				c0.46,0.194,0.721,0.654,0.721,1.175V-42.448z"/>
			<path fill="#4D93C4" d="M61.309,30.823h-2.617v-7.196h2.617V30.823z M61.309,20.356h-2.617V13.16h2.617V20.356z M61.309,9.889
				h-2.617V2.692h2.617V9.889z M61.309-0.579h-2.617v-7.196h2.617V-0.579z M61.309-11.046h-2.617v-7.196h2.617V-11.046z
				 M61.309-21.513h-2.617v-7.196h2.617V-21.513z M61.309-31.98h-2.617v-7.196h2.617V-31.98z"/>
			<path fill="#4D93C4" d="M57.516,41.158l-1.574-2.09l2.683-1.963v-3.01h2.617v3.598c0,0.394-0.194,0.787-0.521,1.048
				L57.516,41.158z"/>
			<path fill="#4D93C4" d="M-2.216,82.117l-1.503-2.167l6.016-4.119l1.508,2.156L-2.216,82.117z M6.355,76.291l-1.502-2.157
				l6.016-4.119l1.508,2.156L6.355,76.291z M14.86,70.402l-1.502-2.156l6.016-4.119l1.507,2.156L14.86,70.402z M23.364,64.515
				l-1.502-2.156l6.016-4.12l1.508,2.157L23.364,64.515z M31.936,58.627l-1.508-2.156l6.021-4.12l1.502,2.157L31.936,58.627z
				 M40.44,52.739l-1.508-2.157l6.021-4.124l1.503,2.162L40.44,52.739z M49.011,46.918l-1.508-2.162l6.021-4.12l1.502,2.157
				L49.011,46.918z"/>
			<path fill="#4D93C4" d="M-8.691,86.298c-0.194,0-0.394-0.062-0.588-0.133C-9.739,85.971-10,85.511-10,84.989v-3.792h2.617v1.37
				l1.176-0.777l1.441,2.157l-3.204,2.156C-8.17,86.236-8.431,86.298-8.691,86.298z"/>
			<path fill="#4D93C4" d="M-7.383,77.926H-10v-7.196h2.617V77.926z M-7.383,67.459H-10v-7.196h2.617V67.459z M-7.383,56.991H-10
				v-7.196h2.617V56.991z M-7.383,46.524H-10v-7.196h2.617V46.524z M-7.383,36.057H-10v-7.196h2.617V36.057z M-7.383,25.59H-10
				v-7.196h2.617V25.59z M-7.383,15.123H-10V7.926h2.617V15.123z"/>
			<path fill="#4D93C4" d="M-7.383,5.31H-10V1.251c0-0.455,0.194-0.848,0.588-1.109l3.205-2.162l1.441,2.162l-2.617,1.763V5.31z"/>
			<path fill="#4D93C4" d="M-2.216-1.626l-1.503-2.157l6.016-4.186l1.508,2.157L-2.216-1.626z M6.289-7.581L4.786-9.737l6.016-4.186
				l1.508,2.157L6.289-7.581z M14.86-13.468l-1.502-2.157l6.016-4.186l1.507,2.157L14.86-13.468z M23.364-19.417l-1.502-2.162
				l6.016-4.186l1.508,2.157L23.364-19.417z M31.936-25.306l-1.508-2.162l6.021-4.186l1.502,2.157L31.936-25.306z M40.44-31.26
				l-1.508-2.162l6.021-4.186l1.503,2.162L40.44-31.26z M49.011-37.147l-1.508-2.162l6.021-4.186l1.502,2.162L49.011-37.147z"/>
		</g>
		<g>
			<path fill="none" d="M-8.691,84.989"/>
		</g>
		<g>
			<path fill="none" d="M128.691,84.989"/>
		</g>
		<g>
			<path fill="#4D93C4" d="M61.309-42.448h-2.617v-3.925c0-0.46,0.261-0.915,0.721-1.175c0.455-0.199,0.981-0.199,1.375,0.061
				l3.204,2.229l-1.507,2.157l-1.176-0.787V-42.448z"/>
			<path fill="#4D93C4" d="M61.309,30.823h-2.617v-7.196h2.617V30.823z M61.309,20.356h-2.617V13.16h2.617V20.356z M61.309,9.889
				h-2.617V2.692h2.617V9.889z M61.309-0.579h-2.617v-7.196h2.617V-0.579z M61.309-11.046h-2.617v-7.196h2.617V-11.046z
				 M61.309-21.513h-2.617v-7.196h2.617V-21.513z M61.309-31.98h-2.617v-7.196h2.617V-31.98z"/>
			<path fill="#4D93C4" d="M62.484,41.158l-3.205-2.351c-0.327-0.266-0.521-0.654-0.521-1.048v-3.665h2.617v2.944l2.684,1.963
				L62.484,41.158z"/>
			<path fill="#4D93C4" d="M122.211,82.117l-6.011-4.13l1.503-2.156l6.021,4.119L122.211,82.117z M113.645,76.291l-6.021-4.12
				l1.503-2.156l6.021,4.119L113.645,76.291z M105.141,70.402l-6.021-4.119l1.503-2.156l6.021,4.119L105.141,70.402z M96.636,64.515
				l-6.021-4.119l1.502-2.157l6.021,4.12L96.636,64.515z M88.069,58.627l-6.021-4.119l1.503-2.157l6.021,4.12L88.069,58.627z
				 M79.564,52.739l-6.021-4.119l1.503-2.162l6.021,4.124L79.564,52.739z M70.988,46.918l-6.016-4.125l1.508-2.157l6.011,4.12
				L70.988,46.918z"/>
			<path fill="#4D93C4" d="M128.691,86.298c-0.266,0-0.521-0.062-0.716-0.194l-3.209-2.156l1.441-2.157l1.175,0.777v-1.37H130v3.792
				c0,0.46-0.266,0.92-0.716,1.176C129.08,86.298,128.886,86.298,128.691,86.298z"/>
			<path fill="#4D93C4" d="M130,77.926h-2.617v-7.196H130V77.926z M130,67.459h-2.617v-7.196H130V67.459z M130,56.991h-2.617v-7.196
				H130V56.991z M130,46.524h-2.617v-7.196H130V46.524z M130,36.057h-2.617v-7.196H130V36.057z M130,25.59h-2.617v-7.196H130V25.59z
				 M130,15.123h-2.617V7.926H130V15.123z"/>
			<path fill="#4D93C4" d="M130,5.31h-2.617V1.972l-2.616-1.763l1.441-2.162l3.199,2.162C129.734,0.469,130,0.863,130,1.318V5.31z"
				/>
			<path fill="#4D93C4" d="M122.211-1.626L116.2-5.812l1.503-2.157l6.021,4.186L122.211-1.626z M113.706-7.581l-6.011-4.186
				l1.503-2.157l6.021,4.186L113.706-7.581z M105.141-13.468l-6.021-4.186l1.503-2.157l6.021,4.186L105.141-13.468z M96.636-19.417
				l-6.021-4.191l1.502-2.157l6.021,4.186L96.636-19.417z M88.069-25.306l-6.021-4.191l1.503-2.157l6.021,4.186L88.069-25.306z
				 M79.564-31.26l-6.021-4.186l1.503-2.162l6.021,4.186L79.564-31.26z M70.988-37.147l-6.016-4.186l1.508-2.162l6.011,4.186
				L70.988-37.147z"/>
		</g>
	</g>
	<g>
		<polygon fill="#5C9BD2" points="60.327,-1.693 24.019,23.366 60.327,48.354 96.697,23.366 		"/>
		<polygon fill="#508FC6" points="60.654,92.84 60.654,48.354 24.019,23.366 24.019,67.653 		"/>
		<polygon fill="#508FC6" points="60.654,92.84 60.654,48.354 96.636,23.366 96.636,67.653 		"/>
	</g>
	<g opacity="0.2">
		<polygon fill="#5C9BD2" points="60.327,-45.586 -7.71,1.318 60.327,48.227 128.426,1.318 		"/>
		<polygon fill="#508FC6" points="60.654,131.51 60.654,48.227 -8.038,1.318 -8.038,84.335 		"/>
		<polygon fill="#508FC6" points="60.654,131.51 60.654,48.227 128.037,1.318 128.037,84.335 		"/>
	</g>
</g>
</svg>
