<?xml version="1.0" encoding="utf-8"?>
<!-- Generator: Adobe Illustrator 16.0.0, SVG Export Plug-In . SVG Version: 6.00 Build 0)  -->
<!DOCTYPE svg PUBLIC "-//W3C//DTD SVG 1.1//EN" "http://www.w3.org/Graphics/SVG/1.1/DTD/svg11.dtd">
<svg version="1.1" id="Layer_1" xmlns="http://www.w3.org/2000/svg" xmlns:xlink="http://www.w3.org/1999/xlink" x="0px" y="0px"
	 width="260px" height="240px" viewBox="0 0 260 240" enable-background="new 0 0 260 240" xml:space="preserve">
<g>
	<g>
		<path fill="#DEE5E6" d="M238.644,40.81c0,0-3.478-2.282-7.448-4.355c-0.497-9.405-2.39-19.112-14.603-24.558l-15.688-7.618
			c-2.39-1.887-4.872-2.97-7.447-3.667l0,0l0,0c-0.899-0.2-1.784-0.394-2.685-0.495c-14.198-1.483-29.684,11.387-38.326,21.487l0,0
			l-14.895-8.516c-8.745-6.737-24.733-9.8-48.366,6.041C46.485,47.84,33.079,92.09,40.821,126.245
			c-49.948,37.428-40.018,86.525-40.018,86.525c1.389,5.739,3.972,9.699,7.052,12.375c6.556,4.363,15.494,7.92,25.82,13.365
			c0,0,11.614,5.646,37.636-9.297c28.698-16.535,154.624-89.905,154.624-89.905s32.569-20.782,32.569-70.283
			C258.411,43.185,238.644,40.81,238.644,40.81z"/>
		<path fill="#BDC5C5" d="M20.664,222.672c0,0-8.938-48.218,41.011-85.638c-7.743-34.155,5.664-78.404,48.366-107.115
			c42.702-28.711,57.304,4.647,57.599,8.91c6.857-11.98,37.24-39.803,55.611-22.577c16.292,15.252,8.239,27.226,8.239,27.226
			s23.042-8.214,27.914,23.072c4.856,31.379-21.259,63.06-31.888,71.273c-10.627,8.23-162.862,97.332-162.862,97.332
			S27.91,252.077,20.664,222.672z"/>
	</g>
	<line fill="none" stroke="#BDC5C5" stroke-width="2" stroke-miterlimit="10" x1="61.675" y1="137.034" x2="40.821" y2="126.245"/>
</g>
</svg>
